<svg width="24" height="24" viewBox="0 0 24 24" fill="none" xmlns="http://www.w3.org/2000/svg">
<circle cx="12" cy="12" r="11.5" fill="white" stroke="#1C3BA4"/>
<g opacity="0.2">
<path d="M16.293 7.293L10 13.586L7.70704 11.293C7.51844 11.1108 7.26584 11.01 7.00364 11.0123C6.74144 11.0146 6.49063 11.1198 6.30522 11.3052C6.11981 11.4906 6.01465 11.7414 6.01237 12.0036C6.01009 12.2658 6.11088 12.5184 6.29304 12.707L9.29304 15.707C9.48057 15.8945 9.73488 15.9998 10 15.9998C10.2652 15.9998 10.5195 15.8945 10.707 15.707L17.707 8.707C17.8892 8.5184 17.99 8.26579 17.9877 8.0036C17.9854 7.7414 17.8803 7.49059 17.6949 7.30518C17.5095 7.11977 17.2586 7.0146 16.9964 7.01232C16.7342 7.01005 16.4816 7.11084 16.293 7.293Z" fill="#1C3BA4"/>
</g>
</svg>
