<svg width="84" height="94" viewBox="0 0 84 94" fill="none" xmlns="http://www.w3.org/2000/svg">
<g clip-path="url(#clip0)">
<path d="M70.8 51.5C72.9 53.2 73.5 56.6 72 59C71 60.6 67.6 61.6 64.8 61.6C65.6 59.1 66.1 56.5 66.1 53.7C66.1 39.9 54.9 28.7 41.1 28.7C27.3 28.7 16 39.9 16 53.7C16 54 16 54.2 16 54.5C12.7 55 7.99999 54.4 5.79999 53C3.09999 51.2 1.29999 48 1.19999 44.8C1.09999 42.4 2.09999 39.8 4.29999 38.8C4.39999 38.8 4.49998 38.7 4.59998 38.7C4.79998 39.6 5.09999 40.5 5.69999 41.3C6.59999 42.4 8.39998 42.9 9.49998 41.9C9.79998 39.6 6.89998 37.9 4.69998 38.7C4.59998 38.2 4.59998 37.7 4.49998 37.3C4.09998 32.3 4.79998 27 7.69999 23C9.79998 20 13.4 18 16.9 18C16.8 19.1 17.2 20.4 18.3 20.8C19.5 21.4 21.3 20.1 20.8 18.8C19.6 18.2 18.2 17.9 16.9 18C16.9 17.7 17 17.5 17.1 17.3C17.5 16 18.6 15 19.6 14.1C21.1 12.8 22.9 11.5 24.9 11.4C26.9 11.3 29.1 13.1 28.6 15.1C30.7 6.9 39.8 2.1 48.1 2.4C52.1 2.6 56.2 3.8 59 6.7C60.1 7.8 60.8 9.2 61.3 10.7C60.5 10.9 59.8 11.1 59 11.4C57.3 12 55.5 12.8 54.5 14.3C53.5 15.8 53.4 18.1 54.8 19.2C56.5 20.5 59.1 19.4 60.3 17.7C61.7 15.7 61.9 13.1 61.3 10.8C65 9.9 68.9 9.8 72.4 11.1C76.6 12.7 80.1 16.9 79.9 21.4C79.7 25.4 76.2 29 72.4 29.2C71.8 29 71.2 29 70.6 29C71.2 29.1 71.7 29.2 72.3 29.2C77.4 30.1 81.7 34.9 81.8 40.2C81.9 46 76.7 51.3 70.8 51.5Z" fill="#FF5757"/>
<path d="M49.6 51.4C49.4 51.2 49.7 50.9 49.5 50.7H49.6C49.5 50.5 49.4 50.3 49.5 50.3C49.4 50 49 49 48.6 48.9C48.4 48.9 48.4 48.7 48.2 48.6C48.2 48.6 48.2 48.6 48.2 48.5C48 48.5 47.7 48.2 47.5 48.2V48.1C47.4 48.1 47.2 48 47.1 48H47.3C47.2 48.3 47 47.7 46.7 48C46.4 48 46.4 48.9 46.2 48.9C46.2 49.1 46.2 48.6 46.1 48.8C46 48.7 46.1 48.6 46 48.6C45.9 48.8 45.7 48.7 45.6 49C45.6 49.4 45.1 49.5 45.2 49.8C45.2 50.1 44.8 49.9 44.9 50.2L44.7 50.3C44.6 50.4 44.9 50.4 44.8 50.5C44.7 50.5 44.7 50.6 44.6 50.5C44.4 50.8 44.7 51.2 44.3 51.5C44.5 51.6 44.3 51.8 44.5 51.9C44.4 51.9 44.4 52.3 44.3 52C44.3 52 44.3 51.9 44.3 52H44.2C43.9 52.2 44.3 52.4 44.2 52.6C44.2 52.5 44.2 52.5 44.3 52.5V52.7H44.2V53H44.3C44.2 53.1 44 53.2 44.2 53.4C44.3 53.5 44.4 53.3 44.4 53.4C44.3 53.6 44.2 53.9 44.1 54.2C44.2 54.2 44.2 54.2 44.3 54.3H44.2C44.4 54.6 43.9 54.4 44.1 54.7H44.3C44.6 54.9 44.1 54.9 44.4 55.1C44.4 55 44.7 55 44.6 55.2H44.5C44.5 55.3 44.6 55.3 44.6 55.3C44.5 55.3 44.4 55.3 44.5 55.4L44.3 55.3L44.5 55.5C44.4 55.7 44.6 55.9 44.4 56C44.4 56 44.4 56.4 44.6 56.4C44.5 56.4 44.5 56.6 44.3 56.5C44.4 56.6 44.6 56.8 44.5 56.9C44.5 57.4 44.9 57.4 44.9 58.1C45 58 45.1 58.3 45.2 58.1C45.4 58.3 45.4 58.5 45.5 58.7C45.6 58.9 45.7 59 45.9 58.8C46.1 58.9 46 59.1 46.1 59.2H46C46.4 59.4 46.5 59.4 46.8 59.5C47 59.5 47 59.2 47.2 59.2C47.1 59.3 47.2 59.3 47.3 59.3C47.2 59.3 47.2 59.4 47.4 59.4C47.4 59.4 47.4 59.3 47.5 59.3C47.6 59.2 47.6 59.2 47.5 59.2C47.5 59.2 47.5 59.2 47.5 59.1C47.7 59.2 47.9 58.9 48 59C48.4 58.7 48.5 58.2 48.6 57.8C48.7 57.8 48.7 58 48.7 58.1L48.8 57.8C48.9 57.9 48.8 58 48.8 58.1C49.2 57.9 49 57.3 49.2 57.1L49.1 57C49 57 49 56.9 49 56.8C49.1 56.8 49.3 56.9 49.3 56.7C49.4 56.6 49.3 56.3 49.3 56.2C49.3 56.3 49.2 56.2 49.2 56.2C49.2 56.1 49.3 56.1 49.3 56H49.5C49.4 56 49.4 55.8 49.3 55.7C49.4 55.7 49.4 55.8 49.5 55.9C49.5 55.6 49.5 55.7 49.6 55.4C49.5 55.2 49.4 55.4 49.3 55.3C49.3 55.2 49.2 55 49.3 54.9H49.2C49.1 54.6 49.2 54.5 49.3 54.3C49.2 54.1 49.1 54 49 53.9C49 53.7 49 53.6 49 53.4V53.3C49.2 53.2 49.4 52.9 49.7 52.4C49.8 52 49.8 51.7 49.5 51.5C49.8 51.7 49.5 51.5 49.6 51.4Z" fill="#1D1D1D"/>
<path d="M32.8 51.4C32.6 51.2 32.9 50.9 32.7 50.7H32.8C32.7 50.5 32.6 50.3 32.7 50.3C32.6 50 32.2 49 31.8 48.9C31.6 48.9 31.6 48.7 31.4 48.6C31.4 48.6 31.4 48.6 31.4 48.5C31.2 48.5 30.9 48.2 30.7 48.2V48.1C30.6 48.1 30.4 48 30.3 48H30.5C30.4 48.3 30.2 47.7 29.9 48C29.6 48 29.6 48.9 29.4 48.9C29.4 49.1 29.4 48.6 29.3 48.8C29.2 48.7 29.3 48.6 29.2 48.6C29.1 48.8 28.9 48.7 28.8 49C28.8 49.4 28.3 49.5 28.4 49.8C28.4 50.1 28 49.9 28.1 50.2L28 50.3C27.9 50.4 28.2 50.4 28.1 50.5C28 50.5 28 50.6 27.9 50.5C27.7 50.8 28 51.2 27.6 51.5C27.8 51.6 27.6 51.8 27.8 51.9C27.7 51.9 27.7 52.3 27.6 52C27.6 52 27.6 51.9 27.6 52H27.5C27.2 52.2 27.6 52.4 27.5 52.6C27.5 52.5 27.5 52.5 27.6 52.5V52.7H27.5L27.4 53H27.5C27.4 53.1 27.2 53.2 27.4 53.4C27.5 53.5 27.6 53.3 27.6 53.4C27.5 53.6 27.4 53.9 27.3 54.2C27.4 54.2 27.4 54.2 27.5 54.3H27.4C27.6 54.6 27.1 54.4 27.3 54.7H27.5C27.8 54.9 27.3 54.9 27.6 55.1C27.6 55 27.9 55 27.8 55.2H27.7C27.7 55.3 27.8 55.3 27.8 55.3C27.7 55.3 27.6 55.3 27.7 55.4L27.5 55.3L27.7 55.5C27.6 55.7 27.8 55.9 27.6 56C27.6 56 27.6 56.4 27.8 56.4C27.7 56.4 27.7 56.6 27.5 56.5C27.6 56.6 27.8 56.8 27.7 56.9C27.7 57.4 28.1 57.4 28.1 58.1C28.2 58 28.3 58.3 28.4 58.1C28.6 58.3 28.6 58.5 28.7 58.7C28.8 58.9 28.9 59 29.1 58.8C29.3 58.9 29.2 59.1 29.3 59.2H29.2C29.6 59.4 29.7 59.4 30 59.5C30.2 59.5 30.2 59.2 30.4 59.2C30.3 59.3 30.4 59.3 30.5 59.3C30.4 59.3 30.4 59.4 30.6 59.4C30.6 59.4 30.6 59.3 30.7 59.3C30.8 59.2 30.8 59.2 30.7 59.2C30.7 59.2 30.7 59.2 30.7 59.1C30.9 59.2 31.1 58.9 31.2 59C31.6 58.7 31.7 58.2 31.8 57.8C31.9 57.8 31.9 58 31.9 58.1L32 57.8C32.1 57.9 32 58 32 58.1C32.4 57.9 32.2 57.3 32.4 57.1L32.3 57C32.2 57 32.2 56.9 32.2 56.8C32.3 56.8 32.5 56.9 32.5 56.7C32.6 56.6 32.5 56.3 32.5 56.2C32.5 56.3 32.4 56.2 32.4 56.2C32.4 56.1 32.5 56.1 32.5 56H32.7C32.6 56 32.6 55.8 32.5 55.7C32.6 55.7 32.6 55.8 32.7 55.9C32.7 55.6 32.7 55.7 32.8 55.4C32.7 55.2 32.6 55.4 32.5 55.3C32.5 55.2 32.4 55 32.5 54.9H32.4C32.3 54.6 32.4 54.5 32.5 54.3C32.4 54.1 32.3 54 32.2 53.9C32.2 53.7 32.2 53.6 32.2 53.4V53.3C32.4 53.2 32.6 52.9 32.9 52.4C33 52 33 51.7 32.7 51.5C33 51.7 32.7 51.5 32.8 51.4Z" fill="#1D1D1D"/>
<path d="M12.2 22C12.1 22 12.1 22.1 12.1 22.1L12.2 22Z" fill="#1D1D1D"/>
<path d="M17.7 20.6C17.8 20.7 18 20.8 18.3 20.8C18.5 20.9 19.1 21.1 19.6 20.8C20.1 20.6 20.7 20.2 20.9 19.6C21 19.2 21 18.7 20.5 18.6C20.1 18.4 19.7 18.3 19.3 18.2C19 18.2 18.8 18.2 18.6 18.2C18.4 18.2 18.4 18.4 18.3 18.5L18.1 18.7L18.2 18.8L18.3 19L18.6 19.5C18.8 19.8 19 20.2 19.2 20.5C18.9 20.4 18.5 20.3 18.2 20.2C17.8 20.4 17.7 20.5 17.7 20.6Z" fill="#1D1D1D"/>
<path d="M83.6 39.5C83.6 38.5 83.4 37.7 83.6 37.6C83.3 36.4 82.8 35 82 33.8C81.3 32.6 80.3 31.5 79.3 30.6C78.6 29.9 77.7 29.4 76.9 28.9C77.7 28.3 78.4 27.7 78.7 27.2L78.9 27.3C79.7 26.3 80.4 25.1 80.8 23.8C80.6 24.3 80.4 24.7 80.2 25.2C80 24.8 80.5 24.2 80.8 23.2C81.2 22.2 81.4 20.8 81 19.4C80.8 18.1 80 16.9 79.1 15.9C78.2 14.9 77.2 14.2 76.4 13.2C75.3 12.6 77.5 13.6 76 12.5C76.2 12.2 76.8 12.9 76.6 12.4C75.9 11.9 75.3 11.4 74.6 10.9C74 10.4 73.2 10 72.1 9.7V9.4C70.6 9.1 69.3 8.8 68 8.6C66.8 8.4 65.6 8.3 64.7 8.6C63.7 8.8 63.2 8.8 62.7 8.8C62.3 7.6 61.7 6.6 60.9 5.6C61 5.8 61 6 61 6.2C60.5 5.4 60.1 4.9 59.7 4.3C59.3 3.8 58.7 3.3 57.7 2.9C56.8 2.6 58.9 4.1 57.3 3.2C56.3 2.5 55 1.8 53.6 1.2C52.1 0.6 50.6 0.3 49.1 0.1C49.3 0.4 48.6 0.3 47.8 0.4L47.7 0.2C46.1 0.3 45.8 0.3 45.5 0.1C45.4 3.7998e-07 45 -0.2 43.5 0.2L43 0.6C41.7 1.1 41.3 1.1 40.9 1.1C40.5 1.1 40 1.1 38.7 2C39.8 1.5 39.4 2.3 38 2.8C38.1 2.7 38.2 2.5 38.3 2.4C37.6 2.8 37.4 3 36.8 3.2C37.2 2.9 36.9 2.7 35.8 3.4L36.4 2.7C35.8 3.2 35.2 3.7 34.6 4.3C32.9 5 31 7.2 30.3 7.6C30.3 7.6 29.7 8.2 29.2 9C29.1 9.2 28.9 9.4 28.8 9.6C28.8 9.7 28.8 9.7 28.7 9.8C28.7 9.9 28.6 10 28.6 10.2C28.6 10.3 28.6 10.3 28.6 10.4C28.6 10.2 28.5 10.2 28.4 10.1C28.3 10.1 28.3 9.9 28.2 9.7C28.2 9.8 28.2 10.1 28.2 10.3C28.2 10.3 28.2 10.3 28.2 10.4V10.3C28.2 10.2 28.1 10.1 28.1 9.9C28.1 9.8 28 9.8 28 9.8L27.8 9.7L27.4 9.5C27.1 9.4 26.8 9.3 26.5 9.2C25.9 9 25.1 9 24.6 9.1C23.4 9.2 22.4 9.6 21.6 10.1C20.8 10.6 20 11.1 19.4 11.6C18.8 12.1 18.1 12.6 17.4 13.2C17.6 13.2 17.2 13.6 16.9 14C16.6 14.4 16.4 14.8 16.7 14.7C16.4 15.2 16 15.7 15.8 16.2C15.7 16.3 15.7 16.5 15.6 16.6C15.6 16.6 15.6 16.6 15.6 16.7C15.4 16.7 15.3 16.7 15.1 16.7C15.1 16.7 15 16.7 15.1 16.7H14.9C14.8 16.7 14.6 16.8 14.5 16.8C14.2 16.8 13.9 16.9 13.6 17C12.4 17.5 12.3 18 10.3 19.1C10.8 18.5 10 19 9.3 19.6C9.7 19.3 9.8 19.1 8.8 19.7C8.7 19.9 8.5 20 8.4 20.2H8.3C7.8 20.7 7.6 21 7.6 21C7.6 21 7.8 20.9 8 20.7C8 20.7 8.1 20.7 8.3 20.6C7.6 21 6.9 21.8 6.4 22.5C5.9 23.2 5.5 23.8 5.3 23.8C4.3 25.7 3.8 27.5 3.5 29.2C3.2 30.9 3.2 32.5 3.2 34.2C3.2 34.2 3 33.4 3 32.4C3 33.2 3 34 3 34.8C2.7 34.8 2.8 33.4 2.9 32.6C2.6 34 2.7 35.6 2.9 37.1C2.9 37.3 3 37.6 3 37.8C2.2 38.4 1.8 38.8 1.5 39.2C1.2 39.6 1.1 39.8 1 40C0.9 40.2 0.8 40.4 0.6 40.8C0.4 41.2 0.2 41.8 0 42.7C0 44.7 0.3 42.4 0.5 43.4C0.4 45.1 0.8 46.6 1.3 48.4C1.3 48.2 1.3 48 1.4 47.8C2 49.2 2.6 50.2 3.3 51C3.9 51.8 4.6 52.5 5.3 53.3C7.8 54.7 10 54.7 11.5 54.5C12.7 54.3 13.5 54 14.1 53.6C14.1 53.8 14.1 53.9 14 54.1C14 55 13.9 56 14 56.9C14.3 56.7 14.3 57.2 14.5 57.7L14.3 57.8C15 59.6 13.8 58.6 14.5 60.4L14.9 60.6C15.8 62.1 14.6 61.7 15.9 63.2C15.6 62.5 16.3 62.7 16.5 63.6L16.2 63.5C16.4 64 16.6 64.1 16.7 64.4C16.5 64.2 16.3 64.4 16.7 65.1L16 64.7L17 65.8C17.1 66.1 17.2 66.4 17.3 66.7C17.5 67 17.6 67.3 17.8 67.5C18.1 68 18.4 68.5 18.4 68.8C18.4 68.8 18.5 68.9 18.6 69.1C18.7 69.3 18.9 69.5 19.1 69.8C19.5 70.3 20 70.9 20.3 71C19.8 70.8 20.6 71.8 20.2 71.7C20.8 72 22.2 73.2 22.6 73.8L22.5 73.7C23 74.2 23.4 74.7 23.9 75C24.4 75.3 24.9 75.6 25.3 75.9C25.8 76.2 26.3 76.5 26.7 76.7C27.2 77 27.7 77.3 28.1 77.7C28.1 77.4 29.2 78.1 29.1 77.6C29.7 77.8 30.2 78 30.7 78.3C31.2 78.5 31.7 78.8 32.1 79C32.9 79.4 33.7 79.6 34.2 79.1C35.3 79.3 35.4 79.7 36 79.9H35.7C36.7 80 37.4 80.1 38 80.2C38.6 80.3 39.1 80.3 39.9 80.3C40.7 80.2 40.8 79.7 42.2 79.8C41.8 80 42.3 80 42.8 79.9C42.5 79.9 42.4 80 43.1 80.1C43.2 80 43.3 80 43.5 79.9C43.5 79.9 43.5 79.9 43.5 80C44.3 79.9 44.2 79.8 43.8 79.8C43.8 79.8 43.8 79.7 43.7 79.7C44.6 79.9 46.1 79.3 46.3 79.7C48.8 79 50.5 78.1 52.3 77.1C52.6 77.2 52.2 77.5 51.7 77.9L53 77.2C53.1 77.4 52.3 77.7 51.9 78C53.8 77.6 55 76 56.9 75L57.1 74.6H57.2C57.1 74.5 57.4 74.1 57.6 73.9C58 73.9 57.9 74.3 58.7 73.6C59.1 73.4 59.5 73 59.9 72.5C60.3 72 60.6 71.4 60.9 71C60.5 71.4 60.5 71.2 60.6 70.9C60.9 70.5 61.3 70.4 61.5 70.1L61.8 70.3C61.4 70.3 62.4 69 62.4 68.8C62.8 68.7 62.1 69.6 62.1 69.8C63.3 68.1 62.7 69 63.8 67.2C64.2 66.1 63.4 67.2 63.5 66.6C63.9 65.7 64.1 64.8 64.8 63.9L64.4 64.1C64.7 62.9 65 62 65.3 61.3C65.3 61.3 65.3 61.4 65.4 61.4C65.9 61.8 66.9 62.3 68.7 62.2C69.6 62.1 70.7 61.8 71.7 61.1C72.8 60.4 73.8 59 74.2 57.3L74.3 57.6C74.4 56.9 74.5 56.3 74.4 55.6C74.4 55.3 74.3 55 74.3 54.7C74.3 54.6 74.2 54.4 74.2 54.3L74.1 54C74 53.7 73.9 53.4 73.7 53.2L73.5 53.1H73.7C73.8 53.1 73.9 53 74 53C74.1 53 74.2 52.9 74.3 52.8L74.5 52.7L74.6 52.6L75 52C75.3 52.2 76.3 51.8 77.2 51.2C78.1 50.6 78.9 49.8 79.3 49.5V49.6C80.2 48.4 81.2 47.4 82 46.1C82.8 44.8 83.4 43.4 83.4 41.9C83.4 42 83.6 42.1 83.5 42.8C83.6 41.7 83.7 40.5 83.6 39.5ZM57.9 17.5C57.7 17.8 57.7 17.7 57.6 17.8C57.6 17.7 57.5 17.7 57.7 17.5L57.8 17.3C57.9 16.8 57.6 17.5 57.5 17.4C57.5 17.5 57.5 17.5 57.4 17.6L57.3 17.5L57.4 17.3V17.1L57.3 17.3C57.3 17.2 57.5 16.8 57.3 17.1C57.2 17.3 57.2 17.4 57.1 17.5C57.1 17.3 57.1 17 57.1 16.9C57 17.2 57 17.1 56.9 17.2L57 17C56.8 17.3 57.2 16.5 57 16.7V17.1C56.7 17.5 57.2 16.6 56.8 17.2C56.9 17.2 56.6 17.7 56.6 17.6L56.7 17.4L56.6 17.5C56.7 17.4 56.7 17.2 56.7 17.2L56.8 16.9L56.6 17.3C56.7 17 56.4 17.3 56.6 17C56.6 17 56.6 16.8 56.4 17.1C56.5 16.9 56.5 16.8 56.6 16.5C56.5 16.7 56.3 16.9 56.4 16.6C56.4 16.3 56 16.9 56.1 16.5C56 16.8 56 16.6 55.9 16.9C55.7 17.2 56 16.1 55.5 17.2C55.5 17.2 55.5 17.2 55.5 17.1C55.5 17 55.6 16.9 55.6 16.8V16.7C55.5 16.7 55.5 16.7 55.5 16.7C55.5 16.6 55.5 16.4 55.5 16.2C55.6 15.9 55.7 15.6 55.8 15.3C55.9 15.1 56.2 14.8 56.5 14.6C56.6 14.6 56.8 14.6 56.9 14.6C57.1 14.7 57.3 14.3 57.8 13.9C58.2 13.5 58.8 13.1 59 13.2C59.3 13 59.6 12.8 59.9 12.7C60 14.1 59.8 15.4 59 16.4C58.8 16.8 58.4 17.1 58 17.4C57.9 17.6 57.9 17.6 57.9 17.5ZM62.7 8.9H62.6C62.6 8.8 62.6 8.8 62.5 8.7L62.7 8.9ZM3.8 45.2C3.9 45.3 3.9 45.3 3.8 45.4C3.8 45.3 3.8 45.3 3.8 45.2ZM7.1 37.6C7.1 37.5 7.1 37.5 7.1 37.4C7.5 37.5 7.4 37.6 7.1 37.6ZM4.3 37.3C4.3 37.2 4.3 37.2 4.3 37.3V37.3ZM2 39.3C1.7 39.4 1.9 39.1 2.3 38.7C2.6 38.4 2.9 38.1 3.1 37.9C3.1 38 3.1 38 3.1 38.1C2.5 38.6 2 39.1 2 39.3ZM22.5 67.1C22.1 66.6 21.8 66.2 21.3 65.7C21.6 65.9 21.4 65.5 21.4 65.5C21.2 65.2 21 65 20.9 64.7C20.7 64.4 20.6 64.2 20.4 64C20.1 63.6 19.8 63.3 19.5 63.4C19.1 62.5 19.4 62.6 19.5 62.4C19.3 62.5 18.9 61.8 18.6 61.1L18.8 61.4C18.5 60.8 18.3 60.1 18.1 59.4L17.7 59.9C17.5 58.8 18.2 59.5 17.8 58.5L17.4 58.6C17.3 57.8 17.4 57.2 17.5 56.5C17.6 55.9 17.8 55.3 17.9 54.5C17.9 54.4 17.9 54.4 17.9 54.3C18.1 54.3 18.2 54.3 18.4 54.1C18.4 54.4 18.7 54.1 18.8 54.2C19 54 19.2 54.4 19.5 54.3C19.5 54.3 19.5 54.4 19.4 54.4C19.6 54.4 19.8 54.4 19.8 54.5C20.2 54.5 20.7 54.7 21 54.6C21.2 54.5 21.2 54.6 21.4 54.6C21.6 54.5 21.8 54.7 22 54.7V54.8L22.3 54.9L22.1 55C22.3 54.7 22.2 55.3 22.5 55.2C22.7 55.3 23.2 54.8 23.3 55.1C23.5 55 23.1 55.3 23.3 55.2C23.2 55.3 23.2 55.2 23.2 55.4C23.4 55.4 23.3 55.7 23.5 55.7L23.4 55.8C23.7 55.7 23.7 56.2 23.9 56.1C24.2 56.2 23.8 56.5 24.1 56.5V56.7C24.2 56.8 24.3 56.6 24.3 56.7C24.2 56.8 24.4 56.9 24.2 56.9C24.3 57.2 24.8 57.1 24.8 57.6C25 57.5 25 57.7 25.2 57.7C25.1 57.8 25.4 58 25.1 57.9L25 58C24.9 58.3 25.3 58.2 25.4 58.4C25.4 58.3 25.4 58.3 25.5 58.3L25.6 58.5H25.5C25.5 58.6 25.5 58.7 25.6 58.7L25.7 58.6C25.7 58.7 25.5 58.9 25.7 58.9C25.8 58.9 25.8 58.7 25.9 58.8C25.9 59 25.8 59.3 25.9 59.4C26 59.3 26 59.4 26.1 59.4H26C26.2 59.6 25.7 59.5 25.9 59.7H25.8H26.1C26.4 59.9 25.9 59.8 26.2 60C26.2 59.9 26.5 59.9 26.4 60H26.3C26.3 60.1 26.4 60.1 26.4 60.1C26.3 60.1 26.2 60.1 26.3 60.2H26.1L26.3 60.4C26.2 60.5 26.3 60.7 26.2 60.8C26.2 60.8 26.1 61.1 26.3 61.2C26.2 61.1 26.1 61.3 26 61.2C26.1 61.3 26.2 61.5 26 61.6C25.8 61.9 26.1 62.2 25.8 62.5C25.9 62.5 25.8 62.7 26 62.7C26.1 63.1 25.5 63.1 26 63.4C26 63.6 25.8 63.5 25.8 63.6C25.7 63.9 25.7 64 25.6 64.1C25.6 64.2 25.8 64.3 25.7 64.5C25.6 64.4 25.6 64.5 25.6 64.5C25.6 64.5 25.6 64.4 25.5 64.5V64.6C25.5 64.7 25.5 64.7 25.6 64.7C25.6 64.7 25.6 64.7 25.7 64.7C25.5 64.8 25.6 65 25.4 64.9C25 65 25.1 65.4 25 65.6C24.9 65.6 24.9 65.5 24.9 65.4L24.8 65.6C24.7 65.5 24.8 65.5 24.8 65.4C24.5 65.5 24.7 66 24.4 66.1L24.5 66.2C24.5 66.2 24.6 66.3 24.6 66.4C24.5 66.4 24.4 66.2 24.3 66.4C24.1 66.4 24.2 66.7 24.1 66.8C24.2 66.8 24.2 66.8 24.2 66.9C24.2 67 24 66.9 24 67L23.9 66.9C24 67 23.9 67.1 23.9 67.2C23.8 67.2 23.9 67 23.8 67C23.6 67.2 23.7 67.1 23.5 67.3C23.5 67.5 23.6 67.4 23.7 67.5C23.6 67.6 23.6 67.8 23.4 67.8L23.5 67.9C23.4 68.1 23.3 68.2 23.2 68.2C23 67.9 22.8 67.5 22.5 67.1ZM61.6 62.5C61.3 63.4 60.9 64.4 60.4 65.4C60 65.4 59.5 65.4 58.9 65.3C58.1 64.9 57.9 64.6 57.1 64.3C56.7 64.1 56.3 63.9 55.9 63.7C55.6 63.8 55.4 63.4 55.2 63.4V63.2C55.1 63.2 55 63.2 55 63.1C54.8 63.1 54.8 63 54.7 63L54.6 62.9H54.7C54.6 62.9 54.6 62.8 54.5 62.8C55.9 61.3 54.3 61.4 54.3 61.4C53.9 61.4 53.7 61.4 53.4 61.6C53.4 61.4 53.4 61.1 53.1 61C53.2 61 53.2 61 53.2 60.9C53.1 60.7 53 60.5 52.8 60.6C52.8 60.5 52.9 60.5 53 60.4C52.9 60.4 52.8 60.3 52.8 60.2H52.9C52.9 60.1 52.9 60 52.8 59.9L52.5 60C52.6 59.8 52.8 60 52.7 59.8H52.5C52.6 59.6 52.9 59.5 53.1 59.3C53.2 59 53.4 58.6 53.7 58.3C54 58 54.5 57.7 55 57.8L55.1 57.9C55.2 58.1 55.3 57.5 55.4 57.7L55.5 57.6L55.6 57.7C55.7 57.7 55.7 57.7 55.8 57.6L55.9 57.7C56.3 57.8 56.7 57.5 57.1 57.5C57.7 57.8 58.7 57.6 59.4 57.5C60.3 57.3 61.2 58.3 62.2 58.1H62.3L63 58.3C62.5 59.8 62 61.1 61.6 62.5ZM70.6 58C70.2 58.8 69.4 59.4 68.6 59.8C67.8 60.2 67 60.3 66.4 60.3C66.1 60.3 65.9 60.3 65.7 60.3C65.7 60.2 65.8 60.1 65.8 60C65.8 59.6 65.9 59.2 65.9 58.8C65.9 58.4 65.9 58.1 65.9 57.7C65.9 57 65.8 56.5 65.8 56C65.6 55 65.4 54.4 65.2 53.9C64.8 53 64.5 53.1 64.3 53.6C64 54 63.8 54.8 63.7 55.5C63.6 55.8 63.5 56.2 63.5 56.4V56.5H63.4C63.4 56.2 63 56.4 62.9 56.3C62.6 56.5 62.3 56 62 56.2C62 56.2 62 56.1 62.1 56.1C61.9 56.1 61.6 56.1 61.6 56C61.1 56 60.4 55.8 60.1 56C59.9 56.2 59.9 56 59.7 56.1C59.5 56.3 59.1 56.1 59 56.1V56H58.6H58.7C58.6 56.3 58.4 55.8 58.1 56C57.8 56 57.6 56.6 57.3 56.5C57.2 56.6 57.4 56.3 57.2 56.4C57.2 56.2 57.3 56.3 57.2 56.2C57 56.3 56.9 56 56.6 56.2V56.1C56.3 56.3 56 56 55.8 56.2C55.5 56.3 55.5 55.9 55.2 56.1L55 56C54.8 56 54.9 56.2 54.7 56.2C54.7 56.1 54.5 56.2 54.5 56C54.1 55.9 53.8 56.4 53.2 56.4C53.2 56.6 52.9 56.7 52.9 56.8C52.8 56.7 52.4 57.1 52.6 56.8C52.6 56.8 52.7 56.7 52.7 56.8V56.7C52.3 56.7 52.3 57.2 52 57.4C52.1 57.4 52.2 57.3 52.2 57.4C52.1 57.5 52 57.5 52 57.6V57.5C51.9 57.6 51.8 57.7 51.6 57.8H51.7C51.5 57.9 51.3 57.9 51.3 58.2C51.3 58.4 51.6 58.1 51.5 58.3C51.3 58.5 51 58.9 50.9 59.3C51 59.3 51 59.4 51 59.5H50.9C51 59.9 50.6 59.6 50.7 60.1L50.9 60.2C51.2 60.5 50.6 60.4 51 60.8C51 60.6 51.3 60.7 51.2 60.9H51.1C51.1 61 51.2 61 51.2 61.1C51.1 61.1 51 61.1 51.1 61.2L50.9 61.1C51 61.2 51.1 61.3 51.2 61.3C51.1 61.5 51.4 61.8 51.3 62C51.3 62 51.4 62.4 51.6 62.5C51.1 62.5 50.8 62.5 50.1 62.7C49.7 62.8 49.2 62.9 48.8 63.1C48.6 63.4 48.2 63.2 48 63.4L47.9 63C47.8 63.1 47.7 63.1 47.6 63.1C47.5 63.2 47.3 63.2 47.3 63.2H47.2V63.1C47 63.2 46.8 63.3 46.6 63.3V63.4C46.2 63.3 46.1 63.6 45.7 63.5C45.3 64 44.9 63.4 44.5 63.8C44.6 63.7 44.5 63.7 44.5 63.7C44.2 63.9 44 64 44 64.3C43.8 64.3 43.9 64.2 43.8 64.1C43.8 64.2 43.7 64.3 43.6 64.3L43.7 64.2L43.3 64.3L43.4 64.5C43.2 64.5 43.3 64.2 43.1 64.3V64.5C42.8 64.5 42.6 64.2 42.3 64.1C41.2 64.2 40.1 64.9 39 64.7L38.9 64.6C38.9 64.4 38.7 65 38.6 64.8L38.5 64.9L38.4 64.8C38.3 64.8 38.3 64.8 38.2 64.9L38.1 64.8C37.7 64.7 37.3 65.1 36.9 65.1C36.3 64.9 35.3 65.3 34.7 65.4C33.9 65.8 32.9 65 32 65.5C32 65.5 31.9 65.5 31.9 65.6H31.1C31.1 65.6 30.2 65.6 29.6 65.9C29 66.1 28.8 66.6 30.3 67.4C30.7 67.5 31 67.5 31.3 67.2C31.4 67.5 31.7 67.2 31.8 67.3C32 67.1 32.4 67.5 32.6 67.2C32.6 67.2 32.6 67.3 32.5 67.3C32.7 67.2 32.9 67.2 33 67.3C33.4 67.2 34.1 67.3 34.3 67C34.4 66.8 34.5 67 34.7 66.8C34.9 66.6 35.2 66.7 35.3 66.6V66.7L35.6 66.6H35.5C35.5 66.3 35.8 66.8 36 66.5C36.2 66.5 36.4 65.8 36.7 65.9C36.8 65.7 36.6 66.1 36.8 66C36.8 66.2 36.7 66.1 36.8 66.2C37 66.1 37.1 66.3 37.3 66.2V66.3C37.6 66 37.8 66.4 38 66.2C38.3 66.1 38.2 66.5 38.5 66.3L38.6 66.5C38.7 66.5 38.7 66.3 38.8 66.3C38.8 66.4 39 66.4 38.9 66.5C39.2 66.6 39.5 66.2 40 66.4C40.1 66.2 40.3 66.3 40.3 66.1C40.3 66.2 40.7 66.1 40.5 66.3H40.4V66.4C40.7 66.6 40.8 66.2 41.1 66.2C41 66.2 40.9 66.2 41 66.1H41.2V66.2H41.5L41.4 66.1C41.6 66.1 41.7 66.3 41.8 66.1C41.9 66 41.6 66 41.8 65.9C42 66 42.4 66 42.7 66C42.7 65.9 42.7 65.9 42.8 65.8V65.9C43.1 65.7 43 66.2 43.2 66V65.8C43.4 65.5 43.4 66 43.6 65.7C43.5 65.7 43.5 65.4 43.6 65.5V65.6C43.7 65.6 43.7 65.5 43.7 65.5C43.7 65.6 43.7 65.7 43.8 65.6L43.7 65.8L43.9 65.5C44.1 65.6 44.3 65.4 44.4 65.5C44.4 65.5 44.8 65.5 44.8 65.3C44.7 65.4 45 65.4 44.9 65.6C45 65.5 45.2 65.3 45.4 65.4C45.8 65.5 46.1 65.1 46.5 65.2C46.5 65.1 46.7 65.1 46.6 64.9C46.9 64.6 47.4 65.1 47.4 64.5C47.6 64.4 47.6 64.6 47.7 64.6C48 64.5 48.1 64.5 48.3 64.4C48.4 64.3 48.4 64.1 48.6 64.1C48.6 64.2 48.6 64.2 48.7 64.2C48.7 64.2 48.6 64.3 48.8 64.3V64.2C48.9 64.1 48.9 64.1 48.8 64.1C48.8 64.1 48.8 64.1 48.8 64C49 64.1 49.2 63.9 49.2 64.1C49.6 64 49.8 63.7 50.1 63.6C50.2 63.7 50.1 63.8 50 63.8L50.2 63.7C50.2 63.8 50.1 63.8 50 63.9C50.3 64 50.5 63.6 50.9 63.7V63.6C50.9 63.5 50.9 63.5 51 63.4C51.1 63.5 51.1 63.7 51.2 63.6C51.3 63.7 51.5 63.5 51.7 63.4L51.8 63.5C51.9 63.4 52 63.6 52.1 63.5C52.5 63.7 52.5 64.4 53 64C53.2 64.1 53.1 64.3 53.2 64.3H53.1C53.4 64.5 53.5 64.6 53.7 64.7C53.8 64.7 54 64.5 54.2 64.7C54.1 64.7 54.2 64.8 54.3 64.8C54.2 64.8 54.2 64.8 54.3 64.9H54.4C54.6 64.9 54.5 64.9 54.5 64.9C54.5 64.9 54.5 64.9 54.5 64.8C54.6 65 54.9 65 54.8 65.2C55.2 65.4 55.6 65.4 56 65.5C56 65.6 55.9 65.6 55.8 65.6L56.1 65.7C56 65.8 55.9 65.7 55.8 65.7C56 66 56.5 65.8 56.8 66.1L56.9 66C56.9 65.9 57 65.9 57.1 65.9C57.1 66 57 66.1 57.2 66.2C57.3 66.4 57.6 66.3 57.8 66.3C57.7 66.2 57.8 66.2 57.8 66.2C57.9 66.2 57.9 66.4 58 66.3V66.5C58 66.3 58.3 66.4 58.3 66.4C58.3 66.5 58.1 66.5 58.1 66.5C58.5 66.6 58.3 66.5 58.6 66.6C58.8 66.5 58.6 66.4 58.7 66.3C58.8 66.3 58.9 66.3 59 66.3C58.7 66.8 58.4 67.2 58 67.7C57.6 68.1 57.2 68.5 56.8 68.9C56.4 69.3 56 69.5 55.7 69.8C55 70.4 54.3 70.8 53.7 71.2C52.4 72 51 72.8 48.7 73.8C46.5 74.7 44 75.3 41.6 75.5C41.3 75.6 41 75.7 40.6 75.7C40.2 75.7 39.8 75.7 39.4 75.7C39 75.7 38.6 75.7 38.2 75.6C37.8 75.6 37.4 75.5 37.1 75.6L37.2 76C37 76 36.7 76 36.5 76C36.3 76 36 75.9 35.8 75.8V75.7C35.1 75.7 34.4 75.4 34 75.4V75.3L33.2 75H33.4C32.2 74.8 31.1 74.2 30.1 73.7L30 74C28.1 72.5 27.1 72.5 25.7 70.8H25.8C25 70.4 24.5 70 24 69.4C24.5 69 24.7 68.5 25.1 67.8C25.7 67.1 26.1 67.1 26.5 66.2C26.7 65.8 26.9 65.4 27.1 64.9C27 64.6 27.3 64.4 27.3 64.1H27.4C27.4 64 27.4 63.9 27.5 63.8C27.5 63.7 27.6 63.5 27.5 63.5V63.3C27.5 63.1 27.5 62.8 27.6 62.7H27.5C27.7 62.3 27.5 62.1 27.8 61.7C27.5 61.2 28.2 60.9 27.8 60.4C27.8 60.5 27.9 60.4 27.9 60.4C27.9 60.2 27.8 59.9 27.5 59.9C27.5 59.7 27.6 59.8 27.7 59.7C27.6 59.7 27.5 59.6 27.5 59.4L27.6 59.5C27.6 59.4 27.5 59.2 27.5 59.1L27.3 59.2C27.3 59 27.6 59.1 27.5 58.9H27.3C27.3 58.6 27.5 58.4 27.6 58C27.2 56.8 26.1 56.1 25.6 55.1L25.7 55C25.8 54.8 25.3 55 25.4 54.9H25.2C25.2 54.8 25.2 54.8 25.2 54.8C25.3 55 25.3 55 25.2 55V54.8C24.9 54.5 24.4 54.4 24.1 54.2C23.8 53.6 22.7 53.4 22.1 53.3C21.2 53.3 20.5 52.2 19.5 52.5C19.5 52.5 19.4 52.5 19.4 52.6C19.1 52.6 18.9 52.5 18.6 52.5C18.6 52.5 18.4 52.5 18.2 52.5C18.3 50.1 18.7 47.6 19.5 45.2C20.3 42.7 21.7 40.4 23.4 38.6C24 38.8 24.4 38.9 24.9 38.7C24.9 39 25.5 38.8 25.6 38.9C26 38.7 26.4 39.2 26.9 39.1C26.9 39.1 26.9 39.2 26.8 39.2C27.1 39.2 27.5 39.2 27.5 39.4C28.2 39.5 29.2 39.7 29.6 39.5C29.9 39.4 29.9 39.5 30.2 39.5C30.5 39.4 31 39.6 31.2 39.6V39.7L31.8 39.8L31.6 39.7C31.7 39.4 32 40 32.4 39.8C32.8 39.9 33.3 39.3 33.6 39.5C33.8 39.4 33.4 39.7 33.7 39.6C33.7 39.8 33.6 39.7 33.6 39.8C33.9 39.8 34 40 34.4 40V40.1C34.9 39.9 35.2 40.4 35.5 40.2C36 40.2 35.7 40.6 36.3 40.4L36.5 40.6C36.7 40.7 36.7 40.4 36.9 40.5C36.9 40.6 37.2 40.6 37 40.7C37.5 40.9 38.1 40.6 38.7 41C38.9 40.8 39.2 41 39.3 40.9C39.3 41 40 41 39.6 41.2H39.5L39.4 41.3C39.7 41.6 40.1 41.3 40.5 41.4C40.4 41.3 40.2 41.3 40.4 41.3L40.7 41.4L40.6 41.5L41.1 41.6L41 41.5C41.2 41.6 41.3 41.8 41.6 41.7C41.7 41.6 41.4 41.5 41.7 41.5C42 41.6 42.5 41.9 42.9 42C42.9 41.9 43 41.9 43.1 41.9V42C43.6 41.9 43.2 42.3 43.7 42.2L43.6 42.3L43.8 42.1C44.3 41.9 44 42.4 44.5 42.1C44.3 42.1 44.5 41.8 44.7 41.9L44.5 42C44.6 42 44.7 42 44.8 42C44.7 42.1 44.7 42.2 44.9 42.2L44.8 42.3L45.2 42.1C45.4 42.3 45.9 42.2 46 42.4C46 42.4 46.6 42.6 46.7 42.4C46.6 42.5 46.9 42.6 46.8 42.7C47 42.6 47.4 42.6 47.6 42.7C48.2 42.9 48.7 42.7 49.3 42.9C49.3 42.8 49.6 42.9 49.5 42.7C50.1 42.6 50.5 43.2 50.8 42.7C51.1 42.7 51.1 42.9 51.2 42.9H51.1C51.6 42.9 51.8 43 52.1 43C52.3 43 52.4 42.7 52.7 42.8C52.6 42.9 52.7 42.9 52.8 42.9C52.7 42.9 52.7 42.9 52.8 43C52.8 43 52.9 43 52.9 42.9C53.1 42.9 53.1 42.9 53 42.8C53 42.8 53 42.8 53 42.7C53.2 42.9 53.6 42.8 53.6 43C54.2 43.1 54.7 42.9 55.3 43C55.3 43.1 55.2 43.2 55 43.2H55.4C55.4 43.3 55.2 43.2 55.1 43.2C55.5 43.5 56.1 43.1 56.5 43.4L56.6 43.3C56.6 43.2 56.7 43.2 56.8 43.2C56.9 43.3 56.8 43.5 57 43.5C57.2 43.6 57.6 43.5 57.9 43.5C57.8 43.5 57.8 43.4 57.9 43.4C58 43.4 58.1 43.5 58.2 43.5V43.7C58.2 43.5 58.6 43.6 58.6 43.5C58.7 43.6 58.4 43.6 58.3 43.6C58.8 43.7 58.6 43.6 59.1 43.7C59.4 43.6 59.1 43.5 59.2 43.4C59.4 43.4 59.7 43.3 60 43.5V43.8C60.5 43.8 60.8 43.8 61 44C61.4 43.9 61.7 43.9 62 43.8C62.1 44 62.2 44.3 62.4 44.6C62.5 44.9 62.7 45.3 62.8 45.7C63.5 47.3 64 49.4 64.4 51.1C64.7 52.7 65.1 53.9 65.5 53.7C65.7 53.6 66 53 66.3 51.9C66.4 51.6 66.4 51.3 66.5 51C66.5 50.8 66.6 50.5 66.6 50.2C67.6 51.1 68.8 52.2 69.7 53.2L70.1 53.6C70.2 53.7 70.3 53.8 70.4 54C70.5 54.2 70.7 54.5 70.8 54.7C70.9 54.9 70.9 55.1 71 55.4C71.2 56.3 71.1 57.3 70.6 58ZM27.4 34.9L28.1 34.7C30.2 33.6 31.8 32.2 34.3 31.5C35.9 31.4 38 30.8 40.2 30.7L41 30.6H41.8C42.4 30.6 42.9 30.6 43.4 30.6C43.9 30.6 44.4 30.7 44.9 30.7C45.1 30.7 45.4 30.7 45.6 30.7C45.8 30.7 46 30.8 46.3 30.8C48.7 31 51.1 32.3 53.1 33.8C55.2 35.4 56.9 37.2 58.7 38.8C58.8 38.9 59.1 39.2 59.1 39.2C59.5 39.8 60 40.4 60.4 41C60.7 41.5 60.9 41.9 61.2 42.4C60.3 42.2 59.5 42.4 58.2 42.2C56.8 41.9 56.5 41.6 55 41.5C54.3 41.4 53.5 41.3 52.9 41.2C52.5 41.4 52 41.1 51.6 41.2L51.5 41.1C51.4 41.1 51.2 41.2 51.1 41.1C50.9 41.2 50.7 41.1 50.6 41.1H50.4C50 41.1 49.7 41.1 49.4 41V41.1C48.8 40.8 48.5 41.1 47.9 40.8C47.1 41.1 46.7 40.4 45.9 40.6C46 40.6 45.9 40.5 45.9 40.5C45.5 40.5 45.1 40.4 45.1 40.7C44.8 40.7 44.9 40.6 44.9 40.5C44.9 40.6 44.6 40.6 44.4 40.6H44.5L43.9 40.5L44 40.8C43.7 40.7 44 40.5 43.7 40.5V40.7C43.3 40.6 43.1 40.3 42.7 40.1C41 39.7 39 39.9 37.5 39.3V39.1C37.5 38.9 37 39.3 37 39.1L36.6 39C36.6 39 36.4 38.9 36.5 38.9C36.3 38.9 36.3 38.9 36.2 38.9L36 38.8C35.3 38.6 34.7 38.7 34 38.6C33.2 38.2 31.5 38.2 30.5 38.2C29.1 38.3 27.7 37.2 26.3 37.4H26.1L25.1 37.2C25.3 36.8 25.5 36.2 25.8 36.3L26.2 35.7C26.4 35.6 26.8 35.5 26.6 35.7C27.1 35.3 27.1 35.3 27.4 34.9ZM76.1 47.6C75.9 47.8 75.7 47.9 75.4 48.1C75.2 48.2 74.9 48.4 74.7 48.5C74.5 48.6 74.2 48.8 74 48.9L73.6 49H73.5H73.4C73.3 49 73.1 49.1 73 49.1C73 49.1 72.8 49.1 72.5 49.2C72.2 49.3 71.8 49.4 71.2 49.4C70.6 49.5 69.8 49.5 69 49.6C68.6 49.6 68.2 49.7 67.7 49.7C67.2 49.7 67.1 49.8 66.8 49.9C66.8 49.8 66.8 49.8 66.8 49.7C66.8 49.3 66.9 48.8 66.9 48.3C66.9 47.8 66.9 47.3 66.8 46.7L66.9 46.8C66.7 45.4 66.3 44.3 66 43.4C65.6 42.5 65.1 41.7 64.5 40.9C64.8 40.4 63.4 38.9 63.2 38.3H63.3C62.6 37.8 62.2 37 61.7 36.3C61.2 35.6 60.7 34.9 60 34.4C60.1 34.4 60.2 34.3 60.5 34.6C59.3 34 58 33 58.2 32.7C57.6 32.3 57 31.8 56.3 31.3C55.6 30.9 54.9 30.5 54.2 30.1C52.8 29.4 51.4 28.8 50.5 28.8H50.6C49.5 28.8 49.3 28.3 48.2 28.2C48.2 28.1 48.1 28.1 48.1 28.1C47.5 28.2 46.7 27.9 46 27.8C45.2 27.7 44.5 27.5 44 27.5V27.3C43.3 27.3 42.5 27.2 41.8 27.2L42.6 27.3C42.4 27.6 42 27.5 41.4 27.3C40.8 27.1 40.1 27.1 39.3 27.3C38.5 27.3 37.8 27.7 37.1 28.1C36.7 28.3 36.4 28.5 36 28.6C35.6 28.8 35.3 28.9 34.9 28.9C34.3 29.4 35.4 28.3 34.4 28.8C34.3 28.5 34.8 28.5 34.5 28.3C34 28.5 33.5 28.5 33.1 28.6C32.6 28.7 32.1 28.8 31.5 29.1L31.4 29C30.6 29.5 29.9 29.8 29.2 30.1C28.5 30.3 27.8 30.6 27.4 31.1C26 32.2 25.9 31.1 24.7 32.7C24.4 32.8 24.2 32.8 23.9 32.9C23.2 33.4 23.7 33.6 22.9 34.1C22.8 33.9 21.9 34.8 22.2 34.3C21.3 34.9 20.7 35.8 20 36.7C19.4 37.7 18.7 38.6 17.8 39.7C17.8 40.1 17.6 40.5 17.4 40.9C17.2 41.3 17 41.7 17 42C16.9 42 16.6 42.6 16.4 43C16.2 43.4 16 43.7 16.1 42.9C16.1 42.8 16.2 42.6 16.3 42.6L16.2 42.3C15.6 42.9 15.5 43.6 15.3 44.3C15.2 44.7 15.2 45 15.1 45.4C15 45.8 15 46.1 14.9 46.5C15.1 46.1 15.2 45.5 15.3 45.9L14.9 47.3L14.7 47L14.4 48C14.3 48.3 14.2 48.7 14.2 49.1L14.5 48.9C14.2 49.9 13.7 50.2 14 51.5C14.2 52 14.4 50.5 14.4 51.6C14.4 51.8 14.3 52 14.3 52.3C13.6 52.3 12.7 52.4 11.9 52.3C10.8 52.2 10 52 10 52C8.5 51.6 7.3 50.9 6.4 50C5.5 49.1 4.8 48.1 4.3 47C4.1 46.5 4 46 3.8 45.5C4.8 46 5.5 46.2 6 46.2C6.5 46.3 6.7 46.2 6.7 46.2C7.4 46.1 6.6 45.8 6.4 45.5C6.6 45.2 7.2 45.3 7 45C7.1 44.9 7 44.7 7 44.6C6.6 44.4 7 44.4 6.7 44.3H6.9C6.8 44.2 6.7 44.2 6.8 44.2H6.9C6.7 44.1 6.8 44.1 6.8 44.1H6.9V44H7C6.8 43.9 6.8 43.8 6.9 43.8L6.6 43.7C6.9 43.7 6.4 43.5 6.8 43.5H6.9C6.3 43.2 7.2 43.4 6.9 43.2C7.1 43.2 7.3 43.3 7.5 43.3C7.8 43.5 7.8 43.6 8 43.7C8.1 43.7 8.3 43.8 8.6 43.8C8.9 43.8 9.4 43.7 10 43.3C10.2 43.2 10.3 43.1 10.5 43L10.9 42.7L11.1 42C11.3 41 10.8 39.4 9.8 38.6C9 37.9 8 37.5 7.1 37.3C7.1 36.7 7 36.1 7 35.5C7 34.3 7 33 7.1 31.4C7.6 27.6 9.2 23.8 12.1 22C12.6 21.5 13.3 21 14.2 20.7C14.6 20.6 15.1 20.4 15.6 20.3C15.6 20.3 16.1 20.2 16.3 20.2C16.6 20.2 16.9 20.2 17.1 20.2C17.4 20.1 17.7 20.2 18.1 20.3H18.3H18.4V20.2V20.1L18.2 19.7L18 19.4V19.3V19.2C18 19.1 18 19 18 18.8C18.1 18.4 18.2 18.1 18.7 17.9L19.1 17.8C19.2 17.8 19.2 17.7 19.2 17.7V17.6C19.2 17.5 19.3 17.5 19.3 17.4C19.4 17.3 19.5 17.1 19.6 17C19.8 16.7 20.1 16.4 20.4 16.2L20.2 16C21.7 14.8 22.7 14 23.6 13.5C24 13.3 24.5 13.1 24.9 13.1C25.1 13.1 25.2 13.1 25.5 13.2C25.6 13.2 25.7 13.3 25.8 13.3L25.9 13.4C26 13.5 26.2 13.5 26.3 13.6H26.4H26.3C27.6 13.9 28.4 14.1 28.6 14.3C28.8 14.4 28.8 14.6 28.7 14.7C28.5 14.9 28.8 14.7 29 14.7L29.3 14.6H29.4C29.5 14.6 29.6 14.6 29.7 14.6C30.1 14.6 30.5 14.6 30.9 14.7C31.5 13.3 32.4 11.5 32.8 11.2C33 10.9 33.3 10.5 33.6 10.2C33.9 9.8 34.2 9.5 34.5 9.1C34.2 9.5 34.8 9.1 34.8 9.1C36.2 7.7 38.1 6.7 37.9 6.1C39.3 5.4 39.1 5.7 39.4 5.8C39.3 5.6 40.5 4.9 41.6 4.6L40.9 5C42 4.6 43 4.3 44.2 4.1C44 4 43.7 3.8 43.5 3.7C45.3 3.6 44 4.2 45.8 3.9L45.7 3.5C48.2 3.4 49.7 4.1 51.9 4.9C53.7 5.4 55.5 6.2 56.9 7.3C57.6 7.9 58.2 8.5 58.7 9.2C58.7 9.2 58.7 9.3 58.8 9.3C58.8 9.3 58.8 9.3 58.7 9.3C57.4 9.7 57.9 10 56.5 10.5C56.5 10.4 56 10.6 55.6 10.7C55.2 10.9 54.9 11 55.3 10.7C53 11.7 50.6 15.4 52.4 18.9C52.3 19.1 52.3 19.2 52.3 19.4C52.2 19.9 52.2 20.1 52.2 20.1C52.2 20.8 52.6 20 53 19.9C53.2 20.1 53.1 20.7 53.4 20.5C53.5 20.6 53.6 20.5 53.7 20.5C54.8 21.4 56.4 21.8 57.8 21.6C57.9 21.6 58 21.5 58.1 21.4C58.1 21.7 58 22.3 58.4 22C58.4 22.1 58.5 21.9 58.5 21.9L58.7 22.1C58.7 22.1 58.9 22.3 59.3 22C59.6 21.8 59.9 21.3 60.3 20.2C61 19.7 61.6 19 61.8 18.5C61.9 18.5 62.7 17.4 63 16.6C63.2 16.2 63.3 15.8 63.4 15.8C63.5 15.7 63.5 16 63.3 16.7C63.3 17 63 17.4 63 17.3L63.1 17.7C64 16.4 64.3 14.9 64.3 13.6C64.3 13.1 64.2 12.6 64.1 12.1C65.7 11.9 67.3 11.8 68.8 11.9C70.5 12 72.3 12.4 73.9 13.5C74.8 14.3 75.8 15.2 76.6 16.4C77.4 17.6 78 19.1 78.1 20.6C78.2 22 77.7 23.5 76.8 24.7C75.9 25.9 74.7 26.7 73.7 27.1C73.4 27.2 73 27.3 72.7 27.3C72.6 27.3 72.4 27.3 72.3 27.3C72.1 27.3 71.8 27.3 71.6 27.3C71.6 27.3 71.6 27.3 71.6 27.2C71.5 27.2 71.5 27.3 71.5 27.3C71.4 27.3 71.3 27.3 71.3 27.3C71.3 27.3 71.4 27.2 71.5 27.1L71.7 26.9C72 26.5 71.4 27 71.4 26.9C71.4 27 71.4 27 71.3 27.1V27L71.5 26.9V26.7L71.3 26.9C71.4 26.8 71.7 26.5 71.4 26.7C71.2 26.8 71.2 27 71.1 27C71.2 26.8 71.3 26.6 71.3 26.5C71.1 26.7 71.1 26.7 71 26.7L71.2 26.5C70.9 26.7 71.6 26.1 71.3 26.2L71 26.4C70.6 26.7 71.3 26 70.8 26.4C70.9 26.4 70.4 26.8 70.5 26.7L70.7 26.5C70.6 26.5 70.6 26.6 70.6 26.5C70.7 26.4 70.9 26.3 70.8 26.3L71 26.1L70.6 26.4C70.8 26.2 70.5 26.3 70.7 26.1C70.7 26.1 70.7 25.9 70.5 26.1C70.7 26 70.7 25.9 70.9 25.7C70.7 25.9 70.5 25.9 70.7 25.7C70.8 25.4 70.3 25.8 70.4 25.5C70.2 25.7 70.3 25.6 70 25.8C69.7 26 70.4 25.1 69.5 25.9C69.4 25.9 69.6 25.7 69.7 25.6H69.8C69.7 25.6 69.6 25.6 69.6 25.5C69.5 25.6 69.1 25.9 69.2 25.8C69.4 25.7 69.3 25.7 69.3 25.7C69.3 25.7 69.4 25.6 69.5 25.5L69.4 25.6C69.3 25.6 69.3 25.7 69.3 25.7L69.2 25.8C69.4 25.6 69.1 25.7 69.4 25.5C69.2 25.5 68.9 25.7 68.8 25.7C68.9 25.6 69.1 25.5 69.1 25.4H69C69.2 25.2 69.1 25.3 69.2 25.3C69.4 24.9 68.8 25.5 69 25.1L68.8 25.2C68.7 25.3 68.6 25.4 68.6 25.4C68.8 25.2 69 25 68.9 25C69 24.8 68.7 25 68.6 25.1C68.6 25.1 68.5 25.2 68.4 25.3C68.4 25.3 68.5 25.1 68.4 25.2L68.6 25C68.4 25.2 68.3 25.2 68.2 25.3C68.3 25.1 68.4 25.2 68.5 25.1C68.4 25.1 68.5 25.1 68.4 25C68.2 25.1 68.2 25.2 68 25.4C67.9 25.4 67.7 25.5 67.8 25.4L67 25.6C66.8 25.7 66.8 25.6 66.9 25.4C65.9 26 65.3 26.6 65.1 27C64.8 27.4 64.8 27.6 64.8 27.6C64.6 28.2 65.2 27.7 65.6 27.7C65.7 28 65.4 28.4 65.7 28.4C65.8 28.5 65.9 28.5 66.1 28.6C66.4 28.3 66.2 28.7 66.5 28.5L66.3 28.7C66.4 28.6 66.5 28.6 66.4 28.7H66.3C66.5 28.6 66.4 28.7 66.5 28.7H66.4H66.5L66.4 28.8C66.6 28.7 66.6 28.7 66.6 28.8L66.8 28.6C66.7 28.9 67.1 28.5 66.9 28.9H66.8C67.5 28.5 66.6 29.4 67.2 29C67.1 29 67.1 29.1 67 29.2C67.1 29.2 67.2 29.2 67.6 28.8C67.6 28.8 67.5 29 67.3 29.1C67.5 28.9 67.6 28.9 67.6 28.9L67.5 29H67.6L67.9 28.7C67.8 28.8 67.5 29.1 67.6 29.1L67.9 28.8C67.9 28.9 67.5 29.3 67.3 29.6C67.4 29.9 68.4 29.5 68 30.2L67.8 30.4C67.5 30.7 68.3 30 68 30.3L68.2 30.2C68.1 30.3 68.1 30.3 68 30.4C68 30.4 68.1 30.4 68.2 30.3L68 30.5C67.9 30.7 68.4 30.5 68.4 30.6C68.1 31.1 68.7 31 69 30.9C69.7 30.7 68.5 32 69.2 31.7C69.2 31.7 69.3 31.7 69.3 31.6L69.4 31.8C69.4 31.8 69.5 32 70 31.9C70.4 31.8 71 31.4 72 30.3C74.6 30.9 77 32.8 78.2 35.2C79 36.6 79.3 38.2 79.4 39.7C79.4 40.9 79.1 42.1 78.7 43.2L78.6 43.1V43.2C78 43.3 79 43 78.5 43C78.6 42.9 77.2 43.2 77.5 43C77.2 43 78 42.9 77.7 42.9C78 42.8 77.9 42.9 78.1 42.8C77.9 42.8 78.4 42.6 78.2 42.6L78.4 42.5C77.9 42.5 78.7 42.3 78.2 42.3C78 42.3 78.9 42 78.4 42.1L78.7 42C78.7 41.9 78.3 42.1 78.4 42C78.6 41.9 78.5 41.9 78.7 41.9C79 41.7 78.2 41.8 78.7 41.5C78.3 41.6 78.5 41.5 78.2 41.5C78.4 41.4 78.2 41.4 78.6 41.3L78.8 41.2C79.2 41 78.5 41.1 78.6 41C78.5 41 78.6 41.1 78.4 41.1V41H78.6L78.7 40.9L78.5 41C78.6 40.9 79 40.8 78.7 40.8C78.5 40.8 78.4 41 78.3 40.9C78.4 40.8 78.7 40.6 78.7 40.5C78.4 40.6 78.4 40.6 78.4 40.6L78.6 40.5C78.2 40.5 79.1 40.3 78.8 40.3L78.9 41C78.4 41.1 79.4 40.8 78.7 40.9C78.8 40.9 78.2 41.1 78.3 41L78.5 40.9C78.4 40.9 78.3 40.9 78.4 40.9C78.5 40.9 78.7 40.8 78.7 40.8L79 40.7L78.6 40.8C78.8 40.7 78.5 40.7 78.8 40.6C78.8 40.6 78.9 40.4 78.6 40.5C78.8 40.4 78.9 40.4 79.1 40.3C78.8 40.4 78.6 40.3 78.9 40.2C79.1 40 78.5 40.1 78.7 39.9C78.4 40 78.6 39.9 78.2 40C77.8 40 78.8 39.5 77.7 39.9C77.6 39.9 77.9 39.7 78 39.7H78.1C78 39.6 78 39.6 78 39.5C77.9 39.5 77.4 39.7 77.5 39.6C77.7 39.5 77.7 39.5 77.6 39.5C77.6 39.5 77.7 39.5 77.8 39.4C77.7 39.4 77.7 39.4 77.7 39.4C77.6 39.4 77.6 39.4 77.5 39.4C77.5 39.4 77.4 39.4 77.4 39.5C77.6 39.4 77.3 39.4 77.7 39.3C77.6 39.2 77.2 39.3 77 39.2C77.2 39.1 77.3 39.1 77.4 39.1H77.3C77.5 39 77.5 39.1 77.5 39.1C77.9 38.9 77 39.1 77.4 38.8L77.2 38.9C77.1 38.9 76.9 39 76.9 39C77.1 38.9 77.4 38.8 77.4 38.8C77.6 38.7 77.3 38.7 77.1 38.7C77.1 38.7 77 38.8 76.9 38.8C76.9 38.8 77.1 38.7 77 38.7L77.3 38.6C77 38.7 77 38.7 76.9 38.7C77.1 38.6 77.1 38.7 77.3 38.6C77.2 38.5 77.3 38.6 77.2 38.5C77 38.5 76.9 38.6 76.7 38.7C76.6 38.7 76.4 38.7 76.6 38.6L76.4 38.7C76.2 38.7 76.2 38.6 76.4 38.5C75.2 38.7 74.5 38.9 74.1 39.2C73.7 39.4 73.5 39.6 73.5 39.6C73 40.1 73.8 39.9 74.1 40C74.1 40.3 73.6 40.6 73.9 40.7C73.9 40.8 74.1 40.9 74.2 41C74.6 40.9 74.3 41.1 74.6 41.1L74.4 41.2C74.5 41.2 74.6 41.2 74.5 41.2H74.4C74.6 41.2 74.5 41.2 74.6 41.2H74.5H74.4C74.6 41.2 74.6 41.2 74.6 41.3L74.9 41.2C74.6 41.4 75.2 41.3 74.9 41.5H74.8C75.6 41.4 74.4 41.9 75.1 41.8C75 41.8 75 41.9 74.9 41.9C75 41.9 75.1 42 75.6 41.8C75.6 41.8 75.4 41.9 75.2 42C75.4 41.9 75.5 41.9 75.6 42H75.5L75.6 42.1L76 41.9C75.9 42 75.5 42.1 75.6 42.1L76 42C76 42.1 75.4 42.3 75.2 42.5C75.1 42.8 76.2 42.9 75.6 43.4L75.3 43.5C74.9 43.6 75.9 43.4 75.6 43.5H75.8C75.7 43.5 75.7 43.6 75.6 43.6C75.6 43.6 75.7 43.6 75.8 43.6L75.6 43.7C75.4 43.9 76 43.8 75.9 44C75.4 44.3 76 44.4 76.3 44.5C77 44.6 75.4 45.3 76.2 45.3C76.1 45.3 76.3 45.3 76.3 45.3V45.5C76.3 45.5 76.3 45.8 76.8 45.9C77.1 46 77.6 45.9 78.3 45.7C77.4 46.5 76.8 47.1 76.1 47.6ZM78.8 43.7L79 43.6C79 43.7 78.9 43.7 78.9 43.8C78.8 43.8 78.9 43.7 78.8 43.7Z" fill="#1D1D1D"/>
<path d="M43.5 0.2L43.8 0L43.5 0.2Z" fill="#1D1D1D"/>
<path d="M57.2 74.5C57.2 74.5 57.4 74.5 57.6 74.3L57.2 74.5Z" fill="#1D1D1D"/>
<path d="M14.4 60.3L14.2 60.2L14.4 60.3Z" fill="#1D1D1D"/>
<path d="M80.6 57.4C80.6 57.4 80.1 57.4 80.2 57.3H80.4C80.4 57.3 80.3 57.3 80.3 57.2C80.5 57.3 80.7 57.3 80.6 57.4H80.9L80.5 57.3C80.8 57.3 80.4 57.2 80.8 57.2C80.8 57.2 81 57.1 80.6 57C80.8 57 80.9 57 81.2 57C80.9 56.9 80.7 56.8 81 56.8C81.3 56.7 80.6 56.5 81 56.5C80.7 56.5 80.9 56.4 80.5 56.4C80.1 56.3 81.3 56.2 80.1 56.1C80 56 80.4 56.1 80.4 56H80.5C80.4 55.9 80.4 55.9 80.4 55.8C80.3 55.8 79.8 55.7 79.9 55.7C80.1 55.7 80.1 55.7 80.1 55.7C80.1 55.7 80.2 55.7 80.4 55.7C80.3 55.7 80.3 55.7 80.3 55.7C80.3 55.7 80.3 55.7 80.4 55.7C80.3 55.7 80.3 55.7 80.2 55.7H80.1C80.4 55.7 80.1 55.6 80.4 55.6C80.3 55.5 80 55.4 79.8 55.3C80 55.3 80.2 55.3 80.2 55.4L80.1 55.3C80.4 55.3 80.3 55.3 80.3 55.4C80.7 55.3 79.9 55.2 80.3 55.1H80.1C80 55.1 79.8 55.1 79.8 55.1C80 55.1 80.3 55.1 80.3 55.1C80.5 55.1 80.2 55 80.1 54.9C80.1 54.9 79.9 54.9 79.8 54.9C79.8 54.9 80 54.9 79.9 54.8H80.2C79.9 54.8 79.9 54.7 79.8 54.7C80 54.7 80 54.7 80.2 54.8C80.2 54.7 80.2 54.7 80.2 54.6C80 54.5 79.9 54.6 79.6 54.6C79.5 54.6 79.3 54.5 79.5 54.4H79.2C79 54.3 79 54.3 79.3 54.2C78.2 53.9 77.4 53.8 76.9 53.9C76.4 53.9 76.2 54.1 76.2 54.1C75.6 54.3 76.4 54.5 76.6 54.8C76.5 55.1 75.9 55.1 76.1 55.4C76.1 55.5 76.2 55.7 76.2 55.8C76.6 55.9 76.2 56 76.5 56.1H76.3C76.4 56.1 76.5 56.2 76.4 56.2H76.3C76.5 56.2 76.4 56.3 76.5 56.3H76.4H76.3C76.5 56.4 76.5 56.4 76.4 56.5H76.7C76.4 56.6 77 56.7 76.6 56.8H76.5C77.3 57 76 57 76.7 57.2C76.6 57.2 76.6 57.2 76.5 57.2C76.6 57.3 76.6 57.3 77.2 57.4C77.2 57.4 77 57.4 76.8 57.4C77 57.4 77.1 57.5 77.2 57.5H77.1L77.2 57.6H77.7C77.6 57.6 77.1 57.6 77.2 57.6H77.6C77.5 57.7 76.9 57.7 76.6 57.7C76.4 58 77.4 58.5 76.6 58.7H76.3C75.9 58.6 76.9 58.9 76.5 58.8L76.7 58.9C76.6 58.9 76.5 58.9 76.4 58.9C76.4 58.9 76.4 58.9 76.6 59H76.3C76.1 59.1 76.6 59.3 76.5 59.4C75.9 59.5 76.4 59.8 76.6 60.1C77.2 60.5 75.5 60.4 76.1 60.8C76 60.8 76.2 60.8 76.2 60.9L76.1 61.1C76.1 61.1 76 61.4 76.4 61.6C76.8 61.8 77.6 62.1 79.4 62H79.5C79.8 61.9 79.8 61.8 79.4 61.7C80 61.8 79.5 61.6 79.7 61.6C79.3 61.4 80.1 61.5 79.7 61.3C79.7 61.3 79.9 61.3 79.9 61.4C79.8 61.3 79.7 61.2 80.1 61.3C80 61.1 80.2 61 79.7 60.8H79.8C79.5 60.7 79.8 60.7 79.6 60.6H79.7C79.4 60.5 79.7 60.4 79.5 60.4H79.7V60.3H79.6C79 60.2 80 60.3 79.6 60.1C79.7 60 78.4 59.8 78.7 59.7C78.4 59.6 79.2 59.8 78.9 59.7C79.2 59.7 79.1 59.8 79.3 59.8C79.2 59.7 79.6 59.8 79.4 59.7H79.6C79.2 59.5 79.9 59.6 79.5 59.5C79.3 59.4 80.2 59.5 79.8 59.4H80.1C80.2 59.4 79.7 59.3 79.9 59.3C80.1 59.3 80.1 59.3 80.3 59.3C80.6 59.2 79.9 59 80.4 59C80 58.9 80.2 58.9 79.9 58.8C80.1 58.8 79.9 58.7 80.3 58.8H80.5C81 58.8 80.3 58.6 80.3 58.6C80.2 58.6 80.2 58.6 80.1 58.6V58.5H80.3L80.4 58.4H80.1C80.2 58.4 80.7 58.4 80.3 58.3C80.1 58.3 80 58.3 79.9 58.2C80.1 58.2 80.4 58.1 80.4 58C80.1 58 80.1 58 80.1 57.9H80.3C80 57.8 80.8 57.9 80.6 57.8H80.3C80.3 57.4 81.3 57.5 80.6 57.4Z" fill="#1D1D1D"/>
<path d="M76.4 70.4L76.2 70.3C76.2 70.3 76.4 70.4 76.3 70.3L76.6 70.4C76.3 70.3 76.3 70.2 76.2 70.1C76.4 70.2 76.4 70.2 76.5 70.3C76.5 70.2 76.5 70.2 76.5 70.1C76.3 69.9 76.2 70 76 69.8C76 69.7 75.8 69.6 76 69.6L75.7 69.5C75.5 69.3 75.6 69.3 75.9 69.4C75 68.6 74.3 68.3 73.8 68.1C73.3 67.9 73.1 68 73.1 68C72.4 68 73.1 68.4 73.2 68.8C73 69 72.4 68.8 72.5 69.1C72.4 69.2 72.5 69.4 72.5 69.5C72.9 69.7 72.4 69.6 72.7 69.9L72.5 69.8C72.6 69.9 72.7 69.9 72.5 69.9H72.4C72.5 70 72.4 70 72.5 70.1H72.4V70.2L72.3 70.1C72.4 70.2 72.4 70.3 72.3 70.3L72.6 70.4C72.3 70.4 72.8 70.7 72.4 70.6H72.3C72.9 71.1 71.7 70.5 72.3 71C72.2 70.9 72.2 70.9 72.1 70.9C72.1 71 72.1 71.1 72.6 71.4C72.6 71.4 72.4 71.3 72.2 71.2C72.4 71.3 72.5 71.4 72.5 71.5L72.4 71.4V71.5L72.8 71.7C72.7 71.7 72.3 71.4 72.4 71.5L72.7 71.7C72.6 71.7 72.1 71.5 71.8 71.4C71.5 71.6 72.2 72.4 71.4 72.3L71.1 72.2C70.7 72 71.6 72.6 71.3 72.4L71.4 72.5C71.3 72.5 71.2 72.4 71.2 72.4C71.2 72.4 71.2 72.5 71.3 72.5L71.1 72.4C70.9 72.4 71.2 72.8 71.1 72.8C70.6 72.6 70.8 73.2 71 73.5C71.4 74.1 69.8 73.3 70.3 74C70.2 74 70.3 74.1 70.4 74.1L70.2 74.3C70.2 74.3 70 74.5 70.2 74.9C70.4 75.3 71.1 75.8 72.8 76.5L72.9 76.6C73.2 76.6 73.3 76.6 72.9 76.2C73.4 76.5 73 76.1 73.2 76.2C72.9 75.9 73.6 76.3 73.3 76L73.5 76.1C73.5 76 73.4 75.9 73.7 76.1C73.7 75.9 73.9 75.9 73.6 75.5L73.7 75.6C73.4 75.4 73.7 75.5 73.6 75.4H73.7C73.4 75.2 73.7 75.2 73.6 75.1L73.8 75.2V75.1H73.7C73.2 74.8 74.1 75.2 73.8 75C73.9 75 72.8 74.2 73.1 74.3C72.9 74.1 73.5 74.6 73.3 74.4C73.6 74.6 73.5 74.5 73.7 74.7C73.6 74.6 74 74.8 73.9 74.6L74.1 74.7C73.8 74.4 74.5 74.7 74.1 74.5C74 74.3 74.8 74.8 74.4 74.5L74.7 74.6C74.8 74.6 74.4 74.4 74.5 74.4C74.7 74.5 74.7 74.4 74.8 74.6C75.1 74.7 74.5 74.2 75.1 74.4C74.8 74.2 75 74.2 74.8 74.1C75 74.2 74.9 74 75.2 74.3L75.4 74.4C75.8 74.6 75.3 74.1 75.4 74.1C75.3 74.1 75.3 74.1 75.2 74H75.3L75.5 74.1H75.7L75.5 74C75.6 74 76 74.2 75.7 74C75.5 73.9 75.4 73.9 75.3 73.8C75.5 73.8 75.8 73.9 75.9 73.8C75.6 73.7 75.7 73.6 75.6 73.6L75.8 73.7C75.5 73.4 76.3 73.9 76.1 73.7L75.8 73.5C75.4 73.2 76.3 73.7 75.7 73.3C75.7 73.4 75.2 73 75.3 73.1L75.5 73.2L75.4 73.1C75.5 73.2 75.7 73.3 75.7 73.2L76 73.4L75.6 73.1C75.9 73.2 75.6 72.9 75.9 73.1C75.9 73.1 76.1 73.1 75.8 72.9C76 73 76.1 73 76.3 73.2C76.1 73 75.9 72.9 76.2 73C76.5 73 76 72.6 76.3 72.7C76 72.6 76.2 72.6 75.9 72.4C75.6 72.1 76.7 72.6 75.7 72C75.7 71.9 76 72.1 76 72.1C76 72 76 71.9 76 71.9C75.9 71.8 75.4 71.6 75.6 71.6C75.8 71.7 75.8 71.7 75.8 71.7C75.8 71.7 75.9 71.8 76 71.8C75.9 71.8 75.9 71.7 75.9 71.7C75.9 71.6 75.8 71.6 75.8 71.6C75.8 71.6 75.7 71.6 75.7 71.5C76 71.6 75.7 71.4 76.1 71.5C76.1 71.3 75.8 71.1 75.7 70.9C75.9 71 76 71.1 76.1 71.1V71C76.3 71.1 76.2 71.1 76.3 71.2C76.7 71.3 76 70.8 76.4 70.9L76.2 70.8C76.1 70.8 76 70.7 75.9 70.6C76.1 70.7 76.4 70.8 76.4 70.8C76.7 70.7 76.5 70.5 76.4 70.4Z" fill="#1D1D1D"/>
<path d="M76.1 73.5L76.2 73.6L76.1 73.5Z" fill="#1D1D1D"/>
<path d="M65 86L65.1 86.2L65 86Z" fill="#1D1D1D"/>
<path d="M66.7 83.2C66.6 83 66.5 83 66.3 82.8C66.3 82.7 66.2 82.5 66.4 82.6L66.2 82.4C66.1 82.2 66.2 82.2 66.4 82.3C65.9 81.2 65.4 80.6 65 80.3C64.6 80 64.4 79.9 64.4 79.9C63.8 79.6 64.3 80.3 64.2 80.6C63.9 80.7 63.5 80.3 63.5 80.6C63.4 80.6 63.4 80.8 63.3 81C63.5 81.4 63.2 81.1 63.3 81.4L63.1 81.2C63.2 81.3 63.2 81.4 63.1 81.3V81.2C63.2 81.4 63.1 81.3 63.1 81.4V81.3V81.4L63 81.5C63.1 81.7 63 81.7 62.9 81.7L63.1 81.9C62.8 81.7 63.1 82.2 62.8 82V81.9C63.2 82.6 62.3 81.6 62.6 82.3C62.6 82.2 62.5 82.2 62.5 82.1C62.5 82.2 62.5 82.3 62.8 82.7C62.8 82.7 62.7 82.6 62.5 82.4C62.6 82.6 62.7 82.7 62.7 82.7V82.6V82.7L63 83.1C62.9 83 62.6 82.6 62.7 82.8L62.9 83.1C62.8 83.1 62.4 82.6 62.2 82.4C61.8 82.4 62.1 83.5 61.5 83.1L61.2 83C61 82.6 61.5 83.6 61.3 83.2L61.4 83.4C61.3 83.3 61.3 83.3 61.2 83.2C61.2 83.2 61.2 83.3 61.3 83.4L61.1 83.2C60.9 83.1 61.1 83.6 60.9 83.6C60.5 83.2 60.5 83.8 60.5 84.2C60.6 84.9 59.5 83.6 59.7 84.3V84.4L59.5 84.5C59.5 84.5 59.2 84.6 59.3 85C59.4 85.4 59.7 86.2 61 87.5V87.6C61.2 87.7 61.3 87.7 61.2 87.3C61.5 87.8 61.3 87.3 61.4 87.4C61.2 87 61.7 87.6 61.6 87.2L61.7 87.4C61.7 87.3 61.7 87.2 61.9 87.4C62 87.3 62.2 87.3 62 86.8V86.9C61.8 86.6 62 86.8 62 86.6C62 86.6 62 86.7 62.1 86.7C62 86.4 62.2 86.6 62.2 86.4L62.3 86.6L62.4 86.5H62.3C62 86 62.6 86.8 62.4 86.4C62.5 86.4 61.8 85.3 62.1 85.5C62 85.2 62.3 85.9 62.3 85.7C62.5 86 62.4 85.9 62.5 86.1C62.5 85.9 62.8 86.3 62.7 86.1L62.8 86.3C62.6 85.9 63.1 86.5 62.9 86.1C62.9 85.9 63.4 86.7 63.2 86.2L63.4 86.5C63.5 86.5 63.2 86.1 63.3 86.3C63.4 86.5 63.4 86.4 63.5 86.6C63.8 86.8 63.4 86.1 63.8 86.5C63.6 86.1 63.8 86.3 63.6 86C63.7 86.1 63.7 85.9 63.9 86.3L64 86.5C64.3 86.8 64 86.2 64.1 86.2C64 86.1 64 86.2 63.9 86H64L64.1 86.2H64.3L64.2 86C64.3 86.1 64.6 86.4 64.4 86.1C64.3 85.9 64.2 85.9 64.2 85.8C64.4 85.9 64.6 86.1 64.7 86.1C64.5 85.9 64.5 85.9 64.5 85.8L64.6 86C64.5 85.7 65 86.4 64.9 86.1L64.7 85.8C64.5 85.4 65 86.2 64.7 85.6C64.7 85.7 64.4 85.2 64.5 85.2L64.6 85.4C64.6 85.3 64.5 85.3 64.6 85.3C64.7 85.4 64.8 85.6 64.8 85.5L65 85.8L64.8 85.4C65 85.6 64.9 85.3 65.1 85.5C65.1 85.5 65.3 85.6 65.1 85.3C65.2 85.5 65.3 85.5 65.5 85.8C65.4 85.6 65.3 85.4 65.5 85.6C65.8 85.7 65.4 85.2 65.7 85.4C65.5 85.2 65.7 85.3 65.4 85C65.3 84.6 66 85.5 65.4 84.5C65.4 84.4 65.6 84.7 65.7 84.7V84.8C65.7 84.7 65.7 84.6 65.8 84.6C65.8 84.5 65.4 84.1 65.6 84.1C65.7 84.3 65.7 84.2 65.7 84.2C65.7 84.2 65.8 84.3 65.9 84.4C65.9 84.3 65.8 84.3 65.8 84.3C65.8 84.2 65.7 84.2 65.7 84.2C65.7 84.2 65.7 84.1 65.6 84.1C65.8 84.3 65.7 84 65.9 84.3C65.9 84.2 65.8 83.8 65.8 83.6C65.9 83.7 66 83.9 66 84V83.9C66.2 84.1 66.1 84 66.1 84.1C66.4 84.4 66 83.7 66.3 83.9L66.2 83.7C66.1 83.6 66 83.5 66 83.4C66.2 83.6 66.3 83.8 66.4 83.8C66.6 83.9 66.4 83.6 66.4 83.5C66.4 83.5 66.3 83.4 66.2 83.3C66.2 83.3 66.4 83.4 66.3 83.4L66.5 83.6C66.3 83.4 66.3 83.3 66.3 83.2C66.5 83.4 66.4 83.4 66.5 83.5C66.7 83.3 66.7 83.3 66.7 83.2Z" fill="#1D1D1D"/>
<path d="M52.6 90.2C52.6 89 52.4 88.3 52.2 87.8C52 87.3 51.8 87.2 51.8 87.2C51.4 86.7 51.5 87.5 51.3 87.8C51 87.7 50.8 87.2 50.6 87.5C50.5 87.5 50.4 87.6 50.3 87.7C50.4 88.1 50.1 87.7 50.2 88.1L50 87.9C50 88 50 88.1 49.9 88V87.9C49.9 88.1 49.8 88 49.9 88.1V88V87.9C49.9 88.1 49.8 88.1 49.8 88.1L49.9 88.4C49.7 88.1 49.8 88.7 49.6 88.4V88.3C49.6 89.1 49.3 87.8 49.3 88.6C49.3 88.5 49.3 88.5 49.2 88.4C49.2 88.5 49.1 88.6 49.2 89.1C49.2 89.1 49.1 88.9 49.1 88.7C49.2 88.9 49.1 89.1 49.1 89.1V89L49 89.1L49.1 89.6C49 89.5 49 89 48.9 89.2L49 89.6C48.9 89.5 48.7 89 48.6 88.7C48.3 88.6 48.1 89.6 47.7 89L47.6 88.7C47.5 88.3 47.6 89.3 47.6 89V89.2C47.6 89.1 47.5 89 47.5 89C47.5 89 47.5 89.1 47.5 89.2L47.4 88.9C47.2 88.7 47.2 89.2 47.1 89.2C46.9 88.7 46.6 89.2 46.5 89.5C46.3 90.2 45.8 88.5 45.7 89.3C45.7 89.2 45.7 89.4 45.7 89.4H45.5C45.5 89.4 45.2 89.4 45.1 89.8C45 90.2 45 91.1 45.6 92.8V92.9C45.8 93.1 45.9 93.2 45.9 92.7C46 93.3 46 92.7 46.1 92.9C46.1 92.4 46.3 93.2 46.3 92.8V93C46.3 92.9 46.4 92.8 46.5 93.1C46.6 93 46.8 93.1 46.9 92.6V92.7C46.9 92.3 47 92.6 47 92.4V92.5C47 92.1 47.2 92.4 47.2 92.3V92.5L47.3 92.4C47.2 91.8 47.4 92.8 47.5 92.4C47.6 92.5 47.4 91.1 47.6 91.4C47.6 91.1 47.6 91.9 47.7 91.6C47.8 91.9 47.7 91.8 47.8 92.1C47.8 91.9 47.9 92.4 48 92.2V92.4C48 91.9 48.2 92.7 48.2 92.3C48.3 92.1 48.4 93 48.4 92.5L48.5 92.8C48.5 92.8 48.5 92.4 48.5 92.5C48.5 92.7 48.6 92.7 48.6 92.9C48.8 93.2 48.7 92.4 49 92.9C49 92.5 49.1 92.7 49 92.4C49 92.6 49.1 92.4 49.1 92.8V93C49.3 93.4 49.2 92.7 49.3 92.8C49.3 92.7 49.2 92.8 49.2 92.6H49.3V92.8L49.4 92.9L49.3 92.7C49.4 92.8 49.5 93.2 49.5 92.9C49.5 92.7 49.4 92.6 49.4 92.5C49.5 92.7 49.7 92.9 49.8 92.9C49.7 92.6 49.8 92.6 49.8 92.6L49.9 92.8C49.9 92.4 50.1 93.3 50.1 93L50 92.7C50 92.2 50.2 93.2 50.1 92.5C50.1 92.5 50 92 50 92.1V92.3C50 92.2 50 92.1 50 92.2C50 92.3 50.1 92.5 50.1 92.5V92.8V92.4C50.2 92.6 50.2 92.3 50.3 92.6C50.3 92.6 50.5 92.7 50.4 92.4C50.4 92.6 50.5 92.7 50.6 93C50.6 92.7 50.6 92.5 50.7 92.8C50.9 93 50.8 92.4 51 92.7C50.9 92.4 51 92.6 50.9 92.2C50.9 91.8 51.3 92.9 51.1 91.8C51.1 91.7 51.2 92 51.3 92.1V92.2C51.4 92.1 51.4 92.1 51.5 92.1C51.5 92 51.4 91.5 51.5 91.6C51.5 91.8 51.6 91.8 51.6 91.8C51.6 91.8 51.6 91.9 51.7 92C51.7 91.9 51.7 91.9 51.7 91.9C51.7 91.8 51.7 91.8 51.7 91.7V91.6C51.8 91.9 51.8 91.5 51.9 91.9C52 91.8 52 91.4 52 91.2C52.1 91.4 52.1 91.5 52.1 91.6L52.2 91.5C52.3 91.8 52.2 91.7 52.2 91.7C52.4 92.1 52.3 91.2 52.5 91.6V91.4C52.5 91.3 52.4 91.1 52.5 91.1C52.6 91.3 52.7 91.6 52.7 91.6C52.8 91.8 52.8 91.5 52.8 91.3L52.7 91.1C52.7 91.1 52.8 91.3 52.8 91.2L52.9 91.5C52.8 91.2 52.9 91.2 52.8 91C52.9 91.2 52.8 91.2 52.9 91.4C53 91.3 52.9 91.4 53 91.3C53 91.1 52.9 91 52.8 90.7C52.8 90.6 52.8 90.4 52.9 90.6L52.8 90.3C52.4 89.9 52.5 89.9 52.6 90.2Z" fill="#1D1D1D"/>
<path d="M36.5 89C36.3 88.8 36.3 88.3 36 88.5C35.9 88.4 35.7 88.5 35.6 88.6C35.5 89 35.4 88.6 35.3 88.9V88.7C35.3 88.8 35.2 88.9 35.2 88.8V88.7C35.1 88.9 35.1 88.8 35.1 88.8V88.7V88.6C35 88.8 34.9 88.8 34.9 88.7V89C34.8 88.7 34.7 89.2 34.6 88.8V88.7C34.3 89.4 34.5 88.1 34.2 88.8C34.2 88.7 34.2 88.7 34.2 88.6C34.1 88.7 34 88.7 33.9 89.3C33.9 89.3 33.9 89.1 33.9 88.9C33.9 89.1 33.8 89.2 33.7 89.2V89.1L33.6 89.2L33.5 89.7C33.5 89.6 33.6 89.1 33.5 89.2L33.4 89.6C33.3 89.5 33.4 88.9 33.4 88.6C33.1 88.4 32.6 89.3 32.4 88.5L32.5 88.2C32.6 87.8 32.3 88.8 32.4 88.4L32.3 88.6C32.3 88.5 32.3 88.4 32.3 88.3C32.3 88.3 32.3 88.3 32.2 88.5V88.2C32.1 88 31.9 88.4 31.8 88.3C31.8 87.7 31.4 88.1 31.1 88.4C30.7 89 30.9 87.2 30.4 87.9C30.4 87.8 30.4 88 30.3 88H30.5C30.5 88 30.3 87.9 30 88.2C29.7 88.5 29.4 89.3 29.3 91.1V91.2C29.4 91.5 29.4 91.5 29.7 91.1C29.5 91.7 29.8 91.2 29.8 91.4C30 91 29.9 91.8 30 91.4L29.9 91.6C30 91.5 30.1 91.4 30 91.8C30.2 91.8 30.3 92 30.5 91.5V91.6C30.6 91.3 30.6 91.6 30.7 91.4V91.5C30.8 91.2 30.9 91.5 31 91.4L30.9 91.6H31V91.5C31.2 90.9 31 91.9 31.2 91.5C31.3 91.6 31.7 90.3 31.7 90.6C31.8 90.3 31.6 91 31.7 90.8C31.6 91.1 31.6 91 31.6 91.2C31.7 91.1 31.6 91.5 31.7 91.3L31.6 91.5C31.8 91.1 31.7 91.9 31.8 91.5C31.9 91.3 31.7 92.2 31.9 91.8V92.1C31.9 92.2 32 91.7 32 91.9C31.9 92.1 32 92.1 31.9 92.3C31.9 92.6 32.2 91.9 32.2 92.5C32.3 92.1 32.3 92.4 32.4 92.1C32.4 92.3 32.5 92.2 32.4 92.5L32.3 92.7C32.3 93.2 32.5 92.5 32.6 92.6C32.6 92.5 32.6 92.5 32.6 92.4H32.7L32.6 92.6L32.7 92.7V92.4C32.7 92.5 32.6 93 32.8 92.6C32.9 92.4 32.8 92.3 32.9 92.2C32.9 92.4 33 92.7 33 92.8C33.1 92.5 33.1 92.5 33.1 92.5V92.7C33.3 92.4 33 93.2 33.2 93L33.3 92.7C33.5 92.2 33.2 93.2 33.5 92.6C33.5 92.6 33.6 92.1 33.6 92.2L33.5 92.4L33.6 92.3C33.6 92.4 33.5 92.6 33.6 92.6L33.3 93L33.5 92.6C33.5 92.9 33.6 92.6 33.6 92.9C33.6 92.9 33.7 93.1 33.8 92.7C33.7 92.9 33.8 93 33.7 93.3C33.8 93 33.9 92.9 33.9 93.1C34 93.4 34.2 92.8 34.2 93.1C34.2 92.8 34.3 93 34.3 92.6C34.5 92.3 34.4 93.4 34.6 92.3C34.7 92.2 34.6 92.6 34.6 92.6V92.7C34.7 92.6 34.7 92.6 34.8 92.7C34.9 92.6 34.9 92.1 35 92.2C34.9 92.4 35 92.4 35 92.4C35 92.4 35 92.5 35 92.7C35 92.6 35 92.6 35 92.6C35 92.6 35 92.6 35 92.7C35.1 92.6 35.1 92.6 35 92.5V92.4C35 92.7 35.1 92.4 35.1 92.8C35.2 92.7 35.4 92.4 35.5 92.3C35.5 92.5 35.4 92.6 35.4 92.7L35.5 92.6C35.5 92.9 35.4 92.7 35.4 92.8C35.4 93.2 35.6 92.4 35.7 92.8V92.6C35.7 92.5 35.8 92.3 35.8 92.3C35.8 92.5 35.7 92.8 35.8 92.8C35.8 93 35.9 92.7 36 92.6C36 92.6 36 92.4 36 92.3C36 92.3 36 92.5 36 92.4V92.7C36 92.4 36.1 92.4 36.1 92.3C36.1 92.5 36 92.5 36 92.7C36.1 92.7 36.1 92.7 36.2 92.7C36.3 92.5 36.2 92.4 36.3 92.1C36.4 92 36.4 91.8 36.5 92V91.7C36.6 91.5 36.7 91.5 36.7 91.8C37.2 90.7 37.3 89.9 37.3 89.4C37.3 88.9 37.2 88.7 37.2 88.7C37.1 88 36.8 88.8 36.5 89Z" fill="#1D1D1D"/>
<path d="M22.6 84.1C22.5 83.8 22.7 83.3 22.3 83.4C22.2 83.3 22 83.3 21.9 83.3C21.6 83.6 21.8 83.2 21.5 83.5L21.6 83.3C21.5 83.4 21.4 83.4 21.5 83.3V83.2C21.4 83.3 21.4 83.2 21.3 83.3V83.2H21.2L21.3 83.1C21.1 83.2 21.1 83.2 21.1 83.1L20.9 83.3C21 83 20.6 83.4 20.7 83.1V83C20.1 83.6 20.8 82.4 20.3 83C20.4 82.9 20.4 82.9 20.4 82.8C20.3 82.8 20.2 82.8 19.9 83.3C19.9 83.3 20 83.1 20.1 82.9C20 83.1 19.9 83.2 19.8 83.2L19.9 83.1H19.8L19.5 83.5C19.5 83.4 19.8 83 19.7 83.1L19.5 83.4C19.5 83.3 19.8 82.8 19.9 82.5C19.7 82.2 18.9 82.8 19 82L19.2 81.8C19.5 81.5 18.7 82.3 19 81.9V82.2C19 82.1 19.1 82.1 19.1 82C19.1 82 19 82 18.9 82.1L19 81.9C19 81.7 18.6 82 18.6 81.8C18.8 81.3 18.3 81.5 18 81.6C17.4 81.9 18.3 80.4 17.6 80.8C17.6 80.7 17.5 80.8 17.5 80.9L17.4 80.7C17.4 80.7 17.2 80.5 16.8 80.7C16.4 80.9 15.8 81.5 14.9 83.1H15C15 83.4 15 83.5 15.4 83.2C15 83.6 15.4 83.3 15.3 83.5C15.7 83.2 15.2 83.9 15.5 83.6C15.5 83.6 15.4 83.8 15.3 83.7C15.4 83.7 15.5 83.6 15.3 83.9C15.5 83.9 15.5 84.2 15.9 83.8V84C16.2 83.8 16 84 16.1 83.9V84C16.4 83.8 16.3 84.1 16.4 84L16.3 84.2H16.4V84.1C16.8 83.6 16.2 84.5 16.5 84.2C16.5 84.3 17.4 83.3 17.3 83.6C17.5 83.4 17 83.9 17.2 83.8C17 84 17 83.9 16.9 84.1C17 84 16.8 84.4 17 84.3L16.8 84.5C17.1 84.2 16.7 84.9 17 84.6C17.2 84.5 16.6 85.2 17 84.9L16.8 85.2C16.8 85.3 17.1 84.9 17 85C16.9 85.2 16.9 85.2 16.8 85.3C16.7 85.6 17.3 85.1 17 85.6C17.3 85.3 17.2 85.5 17.4 85.3C17.3 85.4 17.5 85.4 17.2 85.7L17 85.9C16.8 86.3 17.3 85.8 17.3 85.9C17.3 85.8 17.3 85.8 17.4 85.7V85.8L17.3 86V86.2L17.4 86C17.4 86.1 17.1 86.5 17.4 86.2C17.5 86.1 17.6 85.9 17.7 85.9C17.7 86.1 17.6 86.4 17.6 86.5C17.8 86.3 17.8 86.3 17.8 86.3L17.7 86.5C18 86.3 17.4 87 17.6 86.8L17.8 86.5C18.2 86.1 17.5 86.9 18 86.5C17.9 86.5 18.3 86 18.3 86.2L18.2 86.4L18.3 86.3C18.2 86.4 18.1 86.6 18.1 86.6L18 86.4L18.3 86.1C18.2 86.3 18.5 86.1 18.3 86.4C18.3 86.4 18.3 86.6 18.5 86.3C18.3 86.5 18.4 86.6 18.2 86.8C18.4 86.6 18.6 86.5 18.4 86.7C18.3 87 18.8 86.5 18.7 86.9C18.9 86.7 18.8 86.8 19 86.5C19.3 86.3 18.8 87.2 19.4 86.3C19.5 86.3 19.3 86.6 19.3 86.6C19.4 86.6 19.5 86.6 19.5 86.6C19.6 86.5 19.9 86.1 19.9 86.2C19.8 86.4 19.8 86.3 19.8 86.4C19.8 86.4 19.7 86.5 19.7 86.6C19.7 86.5 19.8 86.5 19.8 86.5C19.9 86.5 19.9 86.4 19.9 86.4C19.9 86.4 19.9 86.3 20 86.3C19.9 86.6 20.1 86.4 19.9 86.7C20.1 86.7 20.3 86.4 20.5 86.4C20.4 86.6 20.3 86.7 20.2 86.7H20.3C20.2 86.9 20.2 86.8 20.1 86.8C19.9 87.2 20.5 86.5 20.4 86.9L20.5 86.7C20.6 86.6 20.7 86.5 20.7 86.5C20.6 86.7 20.4 87 20.5 87C20.4 87.2 20.7 87 20.8 86.9L20.9 86.7C20.9 86.7 20.8 86.9 20.9 86.8L20.7 87.1C20.8 86.8 20.9 86.9 21 86.8C20.9 87 20.9 87 20.8 87.1C20.9 87.1 20.9 87.1 21 87.1C21.2 86.9 21.1 86.8 21.3 86.6C21.4 86.6 21.5 86.4 21.5 86.6L21.6 86.4C21.8 86.3 21.8 86.3 21.7 86.6C22.6 85.8 23 85.1 23.2 84.7C23.4 84.2 23.4 84 23.4 84C23.4 83.4 22.9 84 22.6 84.1Z" fill="#1D1D1D"/>
<path d="M17.7 86.4L17.6 86.6L17.7 86.4Z" fill="#1D1D1D"/>
<path d="M6.40001 74.1L6.20001 74.2L6.40001 74.1Z" fill="#1D1D1D"/>
<path d="M11.8 73.9C11.8 73.6 12.2 73.2 11.9 73.2C11.9 73.1 11.7 73 11.6 73C11.2 73.2 11.5 72.9 11.2 73L11.4 72.8C11.3 72.8 11.2 72.9 11.3 72.8H11.4C11.2 72.9 11.3 72.8 11.2 72.8H11.3H11.4C11.2 72.9 11.2 72.8 11.2 72.7L11 72.9C11.2 72.6 10.7 72.9 10.9 72.6H11C10.3 72.9 11.3 72.1 10.6 72.4C10.7 72.4 10.7 72.3 10.8 72.3C10.7 72.3 10.6 72.2 10.1 72.5C10.1 72.5 10.2 72.4 10.4 72.3C10.2 72.4 10.1 72.4 10 72.4H10.1L10 72.3L9.60002 72.6C9.50002 72.2 9.90002 72 9.70002 72L9.40002 72.2C9.40002 72.1 9.90002 71.8 10.1 71.5C10.1 71.1 9.00002 71.3 9.50002 70.7L9.80002 70.5C10.2 70.3 9.20002 70.7 9.50002 70.5L9.30002 70.6C9.40002 70.6 9.40002 70.5 9.50002 70.5C9.50002 70.5 9.40002 70.5 9.30002 70.5L9.50002 70.3C9.60002 70.1 9.10002 70.2 9.10002 70.1C9.50002 69.7 8.90002 69.7 8.60002 69.6C7.90002 69.7 9.30002 68.7 8.60002 68.8C8.70002 68.8 8.50002 68.8 8.50002 68.8V68.6C8.50002 68.6 8.40002 68.3 8.00002 68.3C7.60002 68.3 6.80002 68.6 5.30002 69.7H5.20002C5.00002 69.9 5.00002 70 5.50002 69.9C5.00002 70.2 5.50002 70 5.30002 70.1C5.70002 70 5.00002 70.4 5.40002 70.3L5.20002 70.4C5.30002 70.4 5.40002 70.4 5.10002 70.6C5.20002 70.7 5.20002 70.9 5.70002 70.8H5.60002C5.90002 70.7 5.70002 70.8 5.90002 70.8H5.80002C6.10002 70.7 5.90002 70.9 6.10002 70.9L6.00002 71.4L6.10002 71.5V71.4C6.70002 71.1 5.80002 71.6 6.20002 71.5C6.20002 71.6 7.40002 71 7.20002 71.3C7.50002 71.2 6.80002 71.5 7.00002 71.4C6.70002 71.5 6.80002 71.5 6.60002 71.6C6.80002 71.6 6.40002 71.8 6.60002 71.8L6.40002 71.9C6.80002 71.8 6.20002 72.2 6.60002 72C6.80002 72 6.00002 72.4 6.50002 72.3L6.20002 72.5C6.20002 72.6 6.60002 72.3 6.50002 72.4C6.30002 72.5 6.40002 72.5 6.20002 72.6C6.00002 72.8 6.70002 72.6 6.30002 72.9C6.70002 72.7 6.50002 72.9 6.80002 72.8C6.60002 72.9 6.80002 72.9 6.50002 73.1L6.30002 73.2C5.90002 73.5 6.60002 73.2 6.60002 73.3C6.70002 73.2 6.60002 73.2 6.80002 73.2V73.3L6.60002 73.4L6.50002 73.6L6.70002 73.5C6.60002 73.6 6.20002 73.8 6.60002 73.7C6.80002 73.6 6.90002 73.5 7.00002 73.5C6.90002 73.6 6.70002 73.9 6.70002 74C6.90002 73.8 6.90002 73.9 7.00002 73.9L6.80002 74C7.10002 73.9 6.30002 74.3 6.60002 74.2L6.90002 74C7.40002 73.8 6.50002 74.3 7.10002 74C7.00002 74 7.60002 73.7 7.50002 73.8L7.30002 73.9C7.40002 73.9 7.40002 73.9 7.40002 73.9C7.10002 73.9 6.90002 74 6.90002 74L6.60002 74.1L7.10002 74C6.90002 74.2 7.20002 74.1 6.90002 74.3C6.90002 74.3 6.80002 74.5 7.10002 74.3C6.90002 74.4 6.80002 74.5 6.60002 74.6C6.80002 74.5 7.10002 74.5 6.80002 74.6C6.60002 74.9 7.20002 74.6 7.00002 74.9C7.20002 74.7 7.10002 74.9 7.40002 74.7C7.80002 74.6 6.90002 75.3 7.90002 74.7C8.00002 74.7 7.70002 74.9 7.70002 75H7.60002C7.70002 75 7.80002 75.1 7.80002 75.1C7.90002 75.1 8.40002 74.8 8.30002 74.9C8.20002 75 8.30002 75 8.30002 75.1C8.30002 75.1 8.20002 75.1 8.10002 75.2C8.20002 75.2 8.20002 75.2 8.20002 75.1C8.30002 75.1 8.30002 75.1 8.30002 75C8.30002 75 8.40002 75 8.40002 74.9C8.20002 75.1 8.50002 75 8.20002 75.2C8.30002 75.3 8.70002 75.1 8.90002 75.1C8.80002 75.2 8.60002 75.3 8.50002 75.3H8.60002C8.40002 75.4 8.40002 75.4 8.40002 75.4C8.10002 75.7 8.90002 75.3 8.60002 75.6L8.80002 75.5C8.90002 75.6 9.00002 75.6 9.00002 75.5C8.80002 75.6 8.60002 75.8 8.60002 75.8C8.40002 76 8.80002 75.8 8.90002 75.8C8.90002 75.8 9.00002 75.7 9.10002 75.7C9.10002 75.7 8.90002 75.9 9.00002 75.8L8.80002 76C9.00002 75.8 9.10002 75.9 9.20002 75.8C9.00002 76 9.00002 75.9 8.90002 76C9.00002 76.1 8.90002 76 9.00002 76.1C9.20002 76 9.20002 75.9 9.50002 75.8C9.60002 75.8 9.80002 75.7 9.70002 75.9L9.90002 75.7C10.1 75.6 10.1 75.7 9.90002 75.9C11 75.5 11.7 75.1 12 74.7C12.4 74.4 12.5 74.2 12.5 74.2C12.9 73.7 12.1 74 11.8 73.9Z" fill="#1D1D1D"/>
<path d="M6.6 60.8C7.2 60.4 6.3 60.5 6.1 60.2C6.2 59.9 6.7 59.8 6.5 59.5C6.5 59.4 6.4 59.3 6.3 59.1C5.9 59.1 6.3 58.9 5.9 58.9L6.1 59C6 59 5.9 59 6 59H6.1C5.9 59 6 58.9 5.9 58.9H6H6.1C5.9 58.9 5.9 58.8 6 58.7H5.7C6 58.5 5.4 58.6 5.8 58.4H5.9C5.1 58.4 6.4 58.1 5.7 58.1C5.8 58.1 5.8 58.1 5.9 58.1C5.6 58 5.6 57.9 5 58C5 58 5.2 57.9 5.4 57.9C5.2 57.9 5 57.9 5 57.9H5.1L5 57.8L4.5 57.9C4.6 57.8 5.1 57.8 5 57.8H4.6C4.7 57.7 5.3 57.6 5.5 57.5C5.6 57.2 4.6 56.9 5.3 56.6H5.6C6 56.6 5 56.6 5.4 56.5H5.2C5.3 56.5 5.4 56.5 5.5 56.5C5.5 56.5 5.4 56.5 5.3 56.5L5.6 56.4C5.8 56.3 5.3 56.2 5.4 56.1C5.9 55.9 5.4 55.6 5.1 55.5C4.4 55.3 6.1 54.9 5.4 54.7C5.5 54.7 5.3 54.7 5.3 54.7L5.4 54.5C5.4 54.5 5.4 54.2 5 54.1C4.6 53.9 3.7 53.8 2 54.3H1.9C1.7 54.4 1.6 54.5 2.1 54.6C1.5 54.6 2 54.7 1.9 54.7C2.3 54.8 1.5 54.9 1.9 55H1.7C1.8 55.1 1.9 55.1 1.6 55.1C1.7 55.2 1.5 55.4 2.1 55.5H2C2.4 55.5 2.1 55.6 2.2 55.6H2.1C2.5 55.6 2.2 55.8 2.3 55.8H2.1L2.2 55.9C2.8 55.9 1.8 56 2.2 56.1C2.1 56.2 3.5 56.2 3.2 56.3C3.5 56.3 2.7 56.3 3 56.3C2.7 56.3 2.8 56.3 2.5 56.3C2.7 56.3 2.2 56.4 2.4 56.5H2.2C2.7 56.6 1.9 56.7 2.3 56.7C2.5 56.8 1.6 56.8 2.1 56.9L1.8 57C1.7 57 2.2 57 2.1 57.1C1.9 57.1 1.9 57.2 1.7 57.2C1 56.9 1.8 57 1.3 57.1C1.7 57.1 1.5 57.2 1.8 57.2C1.6 57.2 1.8 57.3 1.4 57.3H1.2C0.7 57.4 1.5 57.4 1.4 57.5C1.5 57.5 1.5 57.4 1.6 57.4V57.5H1.4L1.3 57.6H1.6C1.5 57.7 1 57.7 1.4 57.7C1.6 57.7 1.7 57.6 1.8 57.7C1.6 57.8 1.4 57.9 1.3 58C1.6 58 1.6 58 1.6 58H1.4C1.8 58.1 0.9 58.1 1.1 58.2H1.4C1.9 58.2 0.9 58.3 1.6 58.3C1.6 58.3 2.1 58.2 2 58.3H1.8C1.9 58.3 2 58.3 1.9 58.3C1.8 58.3 1.6 58.3 1.6 58.4H1.3H1.7C1.5 58.5 1.8 58.5 1.4 58.6C1.4 58.6 1.2 58.7 1.6 58.7C1.4 58.7 1.3 58.8 1 58.8C1.3 58.8 1.5 58.9 1.2 58.9C0.9 59.1 1.6 59.1 1.3 59.2C1.6 59.2 1.4 59.2 1.8 59.2C2.2 59.3 1.1 59.5 2.2 59.4C2.3 59.4 1.9 59.5 1.9 59.5H1.8C1.9 59.6 1.9 59.6 1.9 59.7C2 59.7 2.5 59.6 2.4 59.7C2.2 59.7 2.2 59.7 2.2 59.8C2.2 59.8 2.1 59.8 2 59.9C2.1 59.9 2.1 59.9 2.1 59.9C2.1 59.9 2.1 59.9 2 59.9C2.1 59.9 2.1 59.9 2.2 59.9H2.3C2 60 2.3 60 2 60.1C2.1 60.2 2.5 60.2 2.6 60.3C2.4 60.3 2.3 60.3 2.2 60.3L2.3 60.4C2 60.4 2.1 60.4 2.1 60.4C1.7 60.6 2.6 60.5 2.2 60.7H2.4C2.5 60.7 2.7 60.7 2.7 60.7C2.5 60.8 2.2 60.8 2.2 60.8C2 60.9 2.3 60.9 2.5 60.9L2.7 60.8C2.7 60.8 2.5 60.9 2.6 60.9L2.5 61C2.8 60.9 2.8 61 3 61C2.8 61.1 2.8 61 2.6 61C2.6 61.1 2.6 61 2.7 61.1C2.9 61.1 3 61 3.3 61C3.4 61 3.6 61 3.4 61.1L3.7 61C3.9 61 3.9 61.1 3.6 61.2C4.8 61.3 5.5 61.2 6 61C6.4 61 6.6 60.8 6.6 60.8Z" fill="#1D1D1D"/>
<path d="M14.5 24.7C14.2 24.6 14.1 24.6 14.3 25C13.9 24.6 14.2 25 14 24.9C14.2 25.3 13.6 24.7 13.8 25.1L13.7 24.9C13.7 25 13.7 25.1 13.5 24.9C13.5 25.1 13.2 25.1 13.5 25.5L13.4 25.4C13.6 25.7 13.4 25.5 13.5 25.7C13.5 25.7 13.4 25.7 13.4 25.6C13.6 25.9 13.3 25.8 13.4 25.9L13.2 25.7V25.8H13.3C13.7 26.2 13 25.6 13.2 25.9C13.1 25.9 14 26.9 13.7 26.7C13.9 26.9 13.4 26.4 13.5 26.5C13.3 26.3 13.4 26.3 13.2 26.2C13.3 26.3 12.9 26 13 26.2V26.3C13.3 26.7 12.7 26.2 12.9 26.5C13 26.7 12.3 26 12.6 26.4L12.3 26.2C12.2 26.2 12.6 26.5 12.4 26.4C12.2 26.3 12.2 26.3 12.1 26.2C11.8 26 12.3 26.7 11.8 26.4C12.1 26.7 11.9 26.6 12.1 26.8C12 26.7 12 26.9 11.8 26.6L11.6 26.4C11.2 26.1 11.7 26.7 11.6 26.7C11.7 26.7 11.7 26.7 11.8 26.8H11.7L11.6 26.7H11.4L11.6 26.9C11.5 26.8 11.1 26.6 11.4 26.9C11.5 27.1 11.7 27.1 11.7 27.2C11.5 27.1 11.3 27 11.1 27.1C11.3 27.3 11.3 27.3 11.3 27.4L11.1 27.2C11.3 27.5 10.7 26.9 10.8 27.1L11 27.3C11.3 27.7 10.6 27 11 27.5C11 27.4 11.4 27.8 11.3 27.8L11.1 27.6C11.1 27.7 11.2 27.7 11.1 27.7C11 27.6 10.8 27.5 10.8 27.5L10.6 27.3L10.9 27.6C10.7 27.5 10.9 27.7 10.6 27.5C10.6 27.5 10.4 27.5 10.7 27.7C10.5 27.5 10.4 27.5 10.2 27.3C10.4 27.5 10.5 27.7 10.2 27.5C9.89998 27.4 10.4 27.9 9.99998 27.8C10.2 28 10.1 27.9 10.4 28.2C10.6 28.5 9.69998 27.9 10.5 28.7C10.5 28.8 10.3 28.6 10.2 28.6C10.2 28.7 10.2 28.8 10.1 28.8C10.2 28.9 10.6 29.2 10.4 29.2C10.2 29.1 10.3 29.1 10.2 29.1C10.2 29.1 10.1 29 9.99998 29L10.1 29.1C10.1 29.2 10.2 29.2 10.2 29.2C10.2 29.2 10.3 29.2 10.3 29.3C10.1 29.2 10.2 29.4 9.99998 29.2C9.99998 29.4 10.2 29.7 10.3 29.8C10.1 29.7 9.99998 29.6 9.99998 29.5V29.6C9.79998 29.4 9.89997 29.5 9.89997 29.4C9.49997 29.2 10.1 29.8 9.69998 29.6L9.89997 29.7C9.99997 29.8 10.1 29.9 10.1 29.9C9.89998 29.8 9.69998 29.6 9.69998 29.6C9.49998 29.5 9.69998 29.8 9.79998 29.9C9.79998 29.9 9.89998 30 9.99998 30C9.99998 30 9.79997 29.9 9.89997 30L9.59998 29.8C9.79998 30 9.79997 30 9.89997 30.1C9.89997 30.1 9.99997 30.1 9.89997 30C9.89997 30.1 9.89998 30.1 9.79998 30.2C9.99998 30.4 9.99998 30.4 10.2 30.6C10.2 30.7 10.4 30.8 10.2 30.8L10.4 31C10.5 31.2 10.5 31.2 10.2 31.1C10.9 32 11.5 32.5 12 32.8C12.4 33.1 12.7 33.1 12.7 33.1C13.3 33.3 12.8 32.7 12.8 32.3C13.1 32.2 13.5 32.5 13.5 32.1C13.6 32 13.6 31.8 13.6 31.7C13.3 31.4 13.7 31.6 13.5 31.3L13.7 31.4C13.6 31.3 13.6 31.2 13.7 31.3H13.8C13.7 31.2 13.8 31.2 13.7 31.1H13.8V31L13.9 31.1C13.8 30.9 13.8 30.9 13.9 30.9L13.7 30.7C14 30.8 13.6 30.4 14 30.6H14.1C13.6 30 14.6 30.8 14.2 30.2C14.3 30.3 14.3 30.3 14.4 30.3C14.4 30.2 14.4 30.1 14 29.7C14 29.7 14.2 29.8 14.3 29.9C14.1 29.7 14.1 29.6 14.1 29.6L14.2 29.7V29.6L13.8 29.3C13.9 29.3 14.2 29.7 14.2 29.6L13.9 29.3C14 29.3 14.5 29.6 14.7 29.8C15 29.7 14.5 28.7 15.2 29L15.4 29.2C15.7 29.5 15 28.7 15.3 29L15 28.8C15.1 28.8 15.1 28.9 15.2 29C15.2 29 15.2 28.9 15.1 28.8L15.3 29C15.5 29.1 15.2 28.6 15.4 28.6C15.9 28.9 15.8 28.3 15.7 28C15.4 27.4 16.8 28.4 16.5 27.7C16.5 27.7 16.5 27.6 16.4 27.6L16.6 27.5C16.6 27.5 16.8 27.3 16.7 26.9C16.6 26.4 16.1 25.7 14.5 24.7Z" fill="#1D1D1D"/>
<path d="M10.9 27L10.8 26.9L10.9 27Z" fill="#1D1D1D"/>
<path d="M24.4 17.1L24.3 16.9L24.4 17.1Z" fill="#1D1D1D"/>
<path d="M28.6 16.4C28.4 16.2 28.3 16.2 28.4 16.7C28.2 16.2 28.3 16.7 28.2 16.5C28.3 16.9 27.9 16.2 28 16.6C28 16.6 27.9 16.4 28 16.4C28 16.5 27.9 16.6 27.8 16.3C27.7 16.4 27.5 16.4 27.6 16.9V16.8C27.7 17.2 27.6 16.9 27.6 17.1V17C27.7 17.4 27.5 17.1 27.5 17.3L27.1 17L27 17.1H27.1C27.3 17.7 26.9 16.8 27 17.2C26.9 17.2 27.3 18.4 27.1 18.2C27.2 18.5 27 17.8 27 18C26.9 17.7 27 17.8 26.8 17.6C26.8 17.8 26.6 17.3 26.6 17.6L26.5 17.4C26.6 17.9 26.2 17.2 26.3 17.6C26.3 17.8 26 16.9 26.1 17.4L26 16.9C25.9 16.9 26.1 17.3 26 17.2C25.9 17 25.9 17.1 25.8 16.9C25.6 16.6 25.8 17.4 25.4 17C25.5 17.4 25.4 17.2 25.5 17.5C25.4 17.3 25.4 17.5 25.3 17.1L25.2 16.9C24.9 16.5 25.2 17.2 25.1 17.2C25.2 17.3 25.2 17.2 25.2 17.4H25.1L25 17.2V17L25.1 17.2C25 17.1 24.8 16.7 24.9 17.1C25 17.3 25.1 17.4 25.1 17.5C25 17.4 24.8 17.2 24.7 17.1C24.8 17.4 24.8 17.4 24.8 17.4L24.7 17.2C24.8 17.6 24.4 16.7 24.5 17L24.6 17.3C24.7 17.8 24.3 16.8 24.5 17.5C24.5 17.4 24.7 18 24.7 17.9L24.6 17.7C24.6 17.8 24.6 17.9 24.6 17.8C24.6 17.7 24.5 17.5 24.4 17.5L24.3 17.2L24.4 17.6C24.2 17.4 24.3 17.7 24.1 17.4C24.1 17.4 23.9 17.3 24.1 17.6C24 17.4 23.9 17.3 23.8 17.1C23.9 17.3 23.9 17.6 23.7 17.3C23.5 17.1 23.7 17.7 23.4 17.5C23.5 17.8 23.4 17.6 23.6 18C23.7 18.4 23.1 17.4 23.5 18.5C23.5 18.6 23.3 18.3 23.3 18.3V18.2C23.3 18.3 23.2 18.4 23.1 18.4C23.1 18.5 23.4 19 23.2 18.9C23.1 18.7 23.1 18.7 23.1 18.8C23.1 18.8 23.1 18.7 23 18.6C23 18.7 23 18.7 23 18.7C23 18.8 23 18.8 23.1 18.9C23.1 18.9 23.1 19 23.2 19C23 18.8 23.1 19.1 22.9 18.8C22.8 18.9 22.9 19.3 22.9 19.5C22.8 19.3 22.7 19.2 22.7 19.1V19.2C22.6 19 22.7 19 22.7 19C22.4 18.7 22.7 19.5 22.5 19.2L22.6 19.4C22.7 19.5 22.7 19.6 22.7 19.7C22.6 19.5 22.4 19.2 22.4 19.3C22.3 19.1 22.4 19.5 22.4 19.6C22.4 19.6 22.5 19.7 22.5 19.8C22.5 19.8 22.4 19.6 22.4 19.7L22.2 19.4C22.4 19.7 22.3 19.7 22.3 19.8C22.2 19.6 22.2 19.6 22.2 19.4C22.1 19.5 22.2 19.4 22.1 19.5C22.2 19.7 22.3 19.8 22.4 20C22.4 20.1 22.5 20.3 22.3 20.2L22.5 20.4C22.5 20.6 22.5 20.6 22.3 20.4C22.6 21.6 22.9 22.2 23.2 22.6C23.5 23 23.7 23.1 23.7 23.1C24.2 23.5 23.9 22.7 24.1 22.4C24.4 22.4 24.7 22.8 24.8 22.5C24.9 22.5 25 22.3 25.1 22.2C25 21.8 25.2 22.1 25.1 21.8L25.2 22C25.2 21.9 25.2 21.8 25.2 21.9V22C25.2 21.8 25.2 21.9 25.2 21.8V21.9V22C25.2 21.8 25.2 21.8 25.3 21.8L25.2 21.5C25.5 21.7 25.2 21.2 25.5 21.5V21.6C25.3 20.8 25.9 22 25.7 21.3C25.7 21.4 25.8 21.4 25.8 21.5C25.8 21.4 25.9 21.3 25.6 20.8C25.6 20.8 25.7 20.9 25.8 21.1C25.7 20.9 25.7 20.8 25.7 20.7V20.8L25.8 20.7L25.6 20.3C25.7 20.4 25.9 20.8 25.9 20.7L25.7 20.3C25.8 20.3 26.1 20.9 26.3 21.1C26.7 21.1 26.6 20.1 27.1 20.6L27.2 20.9C27.4 21.3 27 20.3 27.2 20.6V20.4C27.2 20.5 27.3 20.5 27.3 20.6C27.3 20.6 27.3 20.5 27.3 20.4L27.4 20.6C27.6 20.7 27.5 20.2 27.7 20.3C28 20.7 28.1 20.2 28.2 19.8C28.2 19.1 29.1 20.6 29 19.8C29 19.9 29 19.7 29 19.7H29.2C29.2 19.7 29.5 19.7 29.5 19.2C29.8 18.8 29.6 18 28.6 16.4Z" fill="#1D1D1D"/>
<path d="M44.8 14.5C44.7 14.3 44.6 14.2 44.5 14.7C44.5 14.1 44.4 14.6 44.4 14.4C44.3 14.8 44.3 14 44.1 14.4V14.2C44 14.3 43.9 14.4 44 14.1C43.9 14.2 43.7 14 43.5 14.5V14.4C43.4 14.8 43.4 14.5 43.4 14.6V14.5C43.3 14.9 43.2 14.5 43.2 14.7V14.5H43.1C43.1 15.1 43 14.1 42.9 14.5C42.8 14.4 42.7 15.8 42.6 15.5C42.6 15.8 42.7 15 42.6 15.3C42.6 15 42.6 15.1 42.6 14.8C42.5 14.9 42.5 14.5 42.4 14.7V14.5C42.3 14.9 42.2 14.2 42.2 14.6C42.1 14.8 42.2 13.9 42.1 14.3V14C42.1 13.9 42.1 14.4 42 14.2C42 14 41.9 14 42 13.8C41.9 13.5 41.8 14.3 41.7 13.7C41.7 14.1 41.6 13.9 41.6 14.2C41.6 14 41.5 14.2 41.5 13.8V13.6C41.4 13.1 41.4 13.8 41.3 13.8C41.3 13.9 41.4 13.9 41.3 14H41.2V13.8L41.1 13.7V14C41 13.9 41 13.4 41 13.8C41 14 41 14.1 41 14.2C40.9 14 40.8 13.8 40.7 13.7C40.7 14 40.7 14 40.7 14V13.8C40.6 14.2 40.7 13.3 40.6 13.5V13.8C40.5 14.3 40.5 13.3 40.5 14C40.5 14 40.5 14.5 40.5 14.4V14.2C40.5 14.3 40.5 14.4 40.5 14.3C40.5 14.2 40.5 14 40.5 14V13.7L40.4 14.1C40.3 13.8 40.3 14.2 40.2 13.8C40.2 13.8 40.1 13.6 40.1 14C40.1 13.8 40.1 13.7 40.1 13.4C40.1 13.7 40 13.9 40 13.6C39.9 13.3 39.8 14 39.7 13.7C39.7 14 39.6 13.8 39.7 14.2C39.6 14.6 39.4 13.5 39.5 14.6C39.4 14.7 39.4 14.3 39.4 14.3V14.2C39.3 14.3 39.3 14.3 39.2 14.3C39.2 14.4 39.2 14.9 39.1 14.8C39.1 14.6 39.1 14.6 39.1 14.6C39.1 14.6 39.1 14.5 39.1 14.3C39.1 14.4 39.1 14.4 39.1 14.4C39.1 14.4 39.1 14.4 39.1 14.3C39.1 14.4 39.1 14.4 39.1 14.5V14.6C39 14.3 39 14.6 39 14.3C38.9 14.4 38.8 14.8 38.7 14.9C38.7 14.7 38.7 14.5 38.7 14.5L38.6 14.6C38.6 14.3 38.6 14.4 38.7 14.4C38.6 14 38.5 14.8 38.4 14.5V14.7C38.4 14.8 38.4 15 38.4 15C38.4 14.8 38.4 14.5 38.3 14.5C38.2 14.3 38.2 14.6 38.1 14.7V14.9C38.1 14.9 38 14.7 38 14.8V14.5C38 14.8 38 14.8 38 15C38 14.8 38 14.8 38 14.6C37.9 14.6 37.9 14.6 37.8 14.7C37.8 14.9 37.8 15 37.8 15.3C37.8 15.4 37.7 15.6 37.7 15.4V15.7C37.6 15.9 37.6 15.9 37.5 15.6C37.3 16.7 37.3 17.5 37.4 18C37.5 18.5 37.6 18.7 37.6 18.7C37.9 19.3 37.9 18.5 38.2 18.3C38.5 18.4 38.6 19 38.8 18.7C38.9 18.7 39.1 18.6 39.2 18.5C39.2 18.1 39.4 18.5 39.4 18.1V18.3C39.4 18.2 39.4 18.1 39.5 18.2V18.3C39.5 18.1 39.6 18.2 39.6 18.1V18.2V18.3C39.7 18.1 39.7 18.1 39.8 18.2V17.9C39.9 18.2 40 17.6 40.1 18V18.1C40.2 17.3 40.3 18.6 40.5 17.9C40.5 18 40.5 18 40.5 18.1C40.6 18 40.6 18 40.6 17.4C40.6 17.4 40.6 17.6 40.7 17.8C40.7 17.6 40.7 17.4 40.8 17.4V17.5L40.9 17.4V16.9C41 17 40.9 17.5 41 17.4V17C41.1 17.1 41.1 17.7 41.2 17.9C41.5 18.1 41.9 17.1 42.2 17.8V18.1C42.2 18.5 42.3 17.5 42.3 17.9V17.7C42.3 17.8 42.3 17.9 42.3 18C42.3 18 42.3 17.9 42.4 17.8V18.1C42.5 18.3 42.6 17.8 42.8 17.9C42.9 18.5 43.3 18 43.4 17.7C43.7 17.1 43.9 18.8 44.2 18.1C44.2 18.2 44.2 18 44.2 18L44.4 18.1C44.4 18.1 44.7 18.2 44.9 17.8C44.9 17.2 45.1 16.4 44.8 14.5Z" fill="#1D1D1D"/>
<path d="M57.1 16.8L57.2 16.6L57.1 16.8Z" fill="#1D1D1D"/>
<path d="M70.7 26.5L70.9 26.4L70.7 26.5Z" fill="#1D1D1D"/>
<path d="M79.2 40.9L79.4 40.8L79.2 40.9Z" fill="#1D1D1D"/>
</g>
<defs>
<clipPath id="clip0">
<rect width="83.6" height="93.3" fill="white"/>
</clipPath>
</defs>
</svg>
