<svg width="20" height="20" viewBox="0 0 20 20" fill="none" xmlns="http://www.w3.org/2000/svg">
<g opacity="1">
<path d="M17.5 1.25H2.49996C1.94763 1.25066 1.41811 1.47037 1.02755 1.86092C0.636993 2.25148 0.417288 2.781 0.416626 3.33333V12.5C0.417288 13.0523 0.636993 13.5819 1.02755 13.9724C1.41811 14.363 1.94763 14.5827 2.49996 14.5833H6.46663L9.67496 18.5938C9.71399 18.6426 9.76351 18.682 9.81984 18.7091C9.87617 18.7361 9.93787 18.7502 10.0004 18.7502C10.0629 18.7502 10.1246 18.7361 10.1809 18.7091C10.2372 18.682 10.2868 18.6426 10.3258 18.5938L13.5333 14.5833H17.5C18.0523 14.5827 18.5818 14.363 18.9724 13.9724C19.3629 13.5819 19.5826 13.0523 19.5833 12.5V3.33333C19.5826 2.781 19.3629 2.25148 18.9724 1.86092C18.5818 1.47037 18.0523 1.25066 17.5 1.25ZM4.58329 9.58333C4.58329 9.69384 4.53939 9.79982 4.46125 9.87796C4.38311 9.9561 4.27713 10 4.16663 10C4.05612 10 3.95014 9.9561 3.872 9.87796C3.79386 9.79982 3.74996 9.69384 3.74996 9.58333V6.25C3.74996 6.13949 3.79386 6.03351 3.872 5.95537C3.95014 5.87723 4.05612 5.83333 4.16663 5.83333C4.27713 5.83333 4.38311 5.87723 4.46125 5.95537C4.53939 6.03351 4.58329 6.13949 4.58329 6.25V9.58333ZM7.49996 11.25C7.49996 11.3605 7.45606 11.4665 7.37792 11.5446C7.29978 11.6228 7.1938 11.6667 7.08329 11.6667C6.97279 11.6667 6.86681 11.6228 6.78866 11.5446C6.71052 11.4665 6.66663 11.3605 6.66663 11.25V4.58333C6.66663 4.47283 6.71052 4.36685 6.78866 4.28871C6.86681 4.21057 6.97279 4.16667 7.08329 4.16667C7.1938 4.16667 7.29978 4.21057 7.37792 4.28871C7.45606 4.36685 7.49996 4.47283 7.49996 4.58333V11.25ZM10.4166 9.16667C10.4166 9.27717 10.3727 9.38315 10.2946 9.4613C10.2164 9.53944 10.1105 9.58333 9.99996 9.58333C9.88945 9.58333 9.78347 9.53944 9.70533 9.4613C9.62719 9.38315 9.58329 9.27717 9.58329 9.16667V6.66667C9.58329 6.55616 9.62719 6.45018 9.70533 6.37204C9.78347 6.2939 9.88945 6.25 9.99996 6.25C10.1105 6.25 10.2164 6.2939 10.2946 6.37204C10.3727 6.45018 10.4166 6.55616 10.4166 6.66667V9.16667ZM13.3333 10.4167C13.3333 10.5272 13.2894 10.6332 13.2113 10.7113C13.1331 10.7894 13.0271 10.8333 12.9166 10.8333C12.8061 10.8333 12.7001 10.7894 12.622 10.7113C12.5439 10.6332 12.5 10.5272 12.5 10.4167V5.41667C12.5 5.30616 12.5439 5.20018 12.622 5.12204C12.7001 5.0439 12.8061 5 12.9166 5C13.0271 5 13.1331 5.0439 13.2113 5.12204C13.2894 5.20018 13.3333 5.30616 13.3333 5.41667V10.4167ZM16.25 9.16667C16.25 9.27717 16.2061 9.38315 16.1279 9.4613C16.0498 9.53944 15.9438 9.58333 15.8333 9.58333C15.7228 9.58333 15.6168 9.53944 15.5387 9.4613C15.4605 9.38315 15.4166 9.27717 15.4166 9.16667V6.66667C15.4166 6.55616 15.4605 6.45018 15.5387 6.37204C15.6168 6.2939 15.7228 6.25 15.8333 6.25C15.9438 6.25 16.0498 6.2939 16.1279 6.37204C16.2061 6.45018 16.25 6.55616 16.25 6.66667V9.16667Z" fill="none"/>
</g>
</svg>
