<svg width="16" height="16" viewBox="0 0 16 16" fill="none" xmlns="http://www.w3.org/2000/svg">
<path d="M6.83337 9.33333H1.50004C1.13204 9.33333 0.833374 9.03467 0.833374 8.66667V0.666667C0.833374 0.298667 1.13204 0 1.50004 0H6.83337C7.20137 0 7.50004 0.298667 7.50004 0.666667V8.66667C7.50004 9.03467 7.20137 9.33333 6.83337 9.33333Z" fill="none"/>
<path d="M6.83337 16H1.50004C1.13204 16 0.833374 15.7014 0.833374 15.3334V11.3334C0.833374 10.9654 1.13204 10.6667 1.50004 10.6667H6.83337C7.20137 10.6667 7.50004 10.9654 7.50004 11.3334V15.3334C7.50004 15.7014 7.20137 16 6.83337 16Z" fill="none"/>
<path d="M14.8334 5.33333H9.50004C9.13204 5.33333 8.83337 5.03467 8.83337 4.66667V0.666667C8.83337 0.298667 9.13204 0 9.50004 0H14.8334C15.2014 0 15.5 0.298667 15.5 0.666667V4.66667C15.5 5.03467 15.2014 5.33333 14.8334 5.33333Z" fill="none"/>
<path d="M14.8334 16H9.50004C9.13204 16 8.83337 15.7014 8.83337 15.3334V7.33335C8.83337 6.96535 9.13204 6.66669 9.50004 6.66669H14.8334C15.2014 6.66669 15.5 6.96535 15.5 7.33335V15.3334C15.5 15.7014 15.2014 16 14.8334 16Z" fill="none"/>
</svg>
