<?xml version="1.0" standalone="no"?>
<!DOCTYPE svg PUBLIC "-//W3C//DTD SVG 20010904//EN"
 "http://www.w3.org/TR/2001/REC-SVG-20010904/DTD/svg10.dtd">
<svg version="1.0" xmlns="http://www.w3.org/2000/svg"
 width="512.000000pt" height="512.000000pt" viewBox="0 0 512.000000 512.000000"
 preserveAspectRatio="xMidYMid meet">
<metadata>
Created by potrace 1.11, written by Peter Selinger 2001-2013
</metadata>
<g transform="translate(0.000000,512.000000) scale(0.100000,-0.100000)"
fill="#000000" stroke="none">
<path d="M2173 4400 c-86 -17 -157 -67 -211 -148 -57 -83 -121 -204 -162 -304
-39 -94 -55 -112 -141 -154 -30 -15 -67 -38 -82 -51 -16 -12 -33 -23 -39 -23
-6 0 -28 -17 -49 -37 -21 -21 -59 -56 -85 -78 -83 -71 -264 -334 -264 -385 0
-4 -12 -28 -26 -51 -14 -24 -22 -33 -19 -20 5 16 4 21 -4 17 -15 -9 -52 -131
-56 -186 -2 -25 -10 -58 -19 -75 -8 -16 -20 -59 -27 -95 -21 -121 -22 -133
-10 -126 6 4 11 1 11 -9 0 -26 -24 -27 -86 -4 -96 35 -207 117 -403 294 -101
92 -199 173 -217 181 -53 22 -118 18 -150 -9 -23 -20 -28 -34 -32 -84 -4 -55
-2 -63 29 -105 23 -31 52 -54 90 -72 70 -33 106 -71 111 -116 4 -47 -19 -50
-82 -10 -114 73 -240 35 -240 -73 0 -54 48 -100 122 -117 29 -6 65 -16 79 -21
28 -11 56 -57 42 -69 -4 -4 -37 -14 -73 -24 -86 -23 -137 -57 -161 -109 -24
-54 -24 -94 1 -134 48 -79 134 -90 240 -31 77 42 116 50 233 49 105 -2 212
-21 345 -62 153 -47 212 -71 212 -85 0 -7 7 -17 15 -22 9 -4 23 -35 31 -67 9
-32 24 -70 35 -83 10 -14 19 -28 19 -32 0 -14 102 -176 138 -220 21 -25 43
-57 50 -72 6 -16 16 -28 22 -28 5 0 10 -14 10 -31 0 -102 142 -387 278 -559
62 -78 188 -194 238 -220 43 -22 62 -25 159 -25 105 0 113 2 180 34 82 41 185
139 258 247 l49 71 66 6 c200 18 293 42 422 107 36 18 74 34 85 36 11 2 31 5
45 8 33 8 218 132 247 167 14 16 28 27 32 24 21 -12 161 128 161 160 0 5 13
20 28 34 16 14 37 40 47 58 10 18 21 30 25 28 10 -6 73 97 75 125 1 14 14 52
28 85 14 33 28 68 31 77 4 15 18 18 78 17 109 0 210 39 314 122 130 103 201
205 269 387 57 152 102 228 171 291 l54 49 107 1 c120 0 151 7 210 44 58 37
83 82 86 157 2 58 0 63 -31 91 -36 33 -67 37 -94 12 -10 -9 -21 -13 -25 -10
-4 4 2 14 13 22 10 8 15 15 10 15 -5 0 6 10 25 23 46 31 75 114 59 169 -13 44
-43 68 -85 68 -35 0 -135 -54 -135 -73 0 -12 -43 -57 -55 -57 -2 0 -10 19 -17
42 -11 37 -10 42 7 55 121 84 161 121 173 158 17 51 7 101 -25 131 -32 30 -81
31 -113 4 -12 -11 -44 -33 -70 -50 -27 -17 -55 -42 -64 -55 -9 -13 -28 -30
-43 -37 -15 -7 -46 -38 -70 -68 -24 -30 -52 -66 -64 -80 -63 -77 -113 -150
-139 -205 -16 -34 -36 -68 -44 -74 -8 -7 -27 -45 -42 -84 -14 -40 -37 -92 -49
-117 -13 -25 -28 -63 -34 -86 -6 -22 -25 -61 -42 -87 -17 -26 -32 -53 -33 -61
-3 -22 -53 -90 -77 -104 -22 -14 -105 -42 -125 -42 -8 0 -9 15 -2 53 15 77 3
351 -17 408 -16 46 -15 51 20 230 41 205 57 422 37 515 -34 159 -108 256 -246
325 -71 35 -95 41 -185 50 -102 9 -105 9 -154 -17 -71 -37 -144 -92 -199 -152
l-47 -50 -58 18 c-113 37 -199 59 -283 75 -81 15 -100 25 -100 53 0 22 -41 95
-82 147 -80 101 -194 174 -303 194 -65 12 -72 12 -132 1z m237 -102 c91 -46
216 -157 257 -229 l21 -37 -111 -4 c-112 -4 -169 -19 -314 -83 -48 -21 -71
-75 -79 -186 -17 -252 -171 -833 -284 -1076 -109 -232 -293 -443 -451 -518
-120 -56 -275 -85 -305 -55 -5 5 -72 31 -149 59 -77 27 -153 54 -170 61 -81
32 -316 63 -441 58 -87 -3 -94 -5 -146 -40 -72 -50 -105 -56 -142 -27 -25 19
-28 27 -23 62 6 45 21 64 57 71 61 11 145 37 166 51 30 19 38 67 22 130 -10
38 -21 55 -47 72 -19 13 -45 23 -58 23 -13 0 -46 10 -73 21 -43 19 -48 24 -39
40 12 23 47 24 97 3 76 -33 134 -44 161 -31 68 32 78 147 18 199 -50 44 -113
79 -129 73 -19 -8 -43 15 -69 67 -19 37 -19 41 -4 64 19 29 25 29 75 4 38 -19
98 -73 264 -235 82 -81 236 -194 300 -220 47 -20 175 -54 238 -65 71 -11 230
19 301 57 56 30 148 118 212 204 88 116 160 307 185 490 7 46 16 93 21 104 7
18 28 217 34 330 2 48 85 278 122 344 15 25 49 76 75 112 26 37 48 70 48 74 0
19 79 65 130 76 70 16 140 2 230 -43z m1244 -264 c58 -20 168 -119 198 -178
43 -84 51 -297 17 -456 -12 -58 -23 -123 -24 -145 -3 -53 -23 -125 -35 -125
-5 0 -12 16 -16 36 -3 19 -21 57 -39 83 -18 26 -43 71 -55 99 -12 29 -26 52
-31 52 -17 0 -32 46 -40 123 -9 88 -31 135 -73 155 -64 31 -171 -47 -252 -184
-23 -38 -45 -80 -49 -94 -4 -14 -54 -148 -111 -298 -57 -149 -104 -279 -104
-287 0 -8 -18 -63 -39 -123 -22 -59 -45 -129 -52 -157 -6 -27 -22 -79 -34
-115 -31 -90 -83 -274 -95 -340 -6 -30 -19 -77 -29 -105 -10 -27 -37 -108 -59
-180 -107 -344 -135 -427 -149 -440 -8 -9 -31 -52 -50 -98 -67 -155 -133 -255
-229 -350 -110 -108 -155 -132 -244 -130 -36 1 -85 9 -110 18 -25 9 -53 18
-63 20 -25 5 -82 52 -148 122 -92 96 -326 467 -354 561 -7 23 -6 23 22 9 15
-9 44 -32 63 -52 41 -43 171 -146 252 -199 69 -45 153 -76 207 -76 43 0 137
22 169 39 43 23 86 97 159 273 129 312 184 475 278 823 82 305 122 439 155
523 17 41 32 87 34 101 2 14 19 62 38 106 19 44 51 130 72 190 20 61 47 128
61 150 13 22 40 69 61 105 196 345 270 444 381 516 86 55 207 66 317 28z
m-901 -125 c108 -19 243 -61 287 -89 12 -7 12 -13 4 -27 -6 -10 -48 -89 -94
-175 -46 -87 -86 -158 -89 -158 -8 0 -211 197 -211 205 0 9 -139 172 -190 223
l-42 42 106 0 c63 0 157 -9 229 -21z m-349 -20 c10 -17 43 -58 75 -92 31 -34
83 -95 116 -136 32 -40 100 -111 151 -158 l92 -85 -20 -46 c-11 -26 -23 -50
-27 -54 -6 -7 -123 8 -268 33 -77 13 -72 8 -111 104 -47 118 -56 136 -67 143
-17 10 -75 156 -75 189 0 15 5 44 10 63 8 29 17 38 52 52 24 8 45 16 48 17 3
0 14 -13 24 -30z m-692 -306 c-7 -59 -15 -110 -18 -112 -7 -7 -188 20 -199 30
-5 6 -3 9 7 9 9 0 23 11 32 25 21 32 64 75 100 100 54 38 81 55 86 55 3 0 0
-48 -8 -107z m647 -181 c12 -24 21 -46 19 -48 -5 -5 -168 22 -175 29 -3 4 7
65 22 137 l29 131 41 -103 c23 -57 52 -123 64 -146z m2521 208 c0 -21 -68 -83
-122 -111 -20 -10 -44 -29 -52 -41 -36 -50 -4 -163 54 -193 50 -26 89 -13 154
51 57 56 78 63 85 29 6 -32 -27 -78 -81 -115 -61 -41 -88 -82 -88 -132 0 -27
6 -41 22 -52 31 -22 44 -20 112 14 33 17 61 28 64 25 2 -2 6 -22 8 -45 3 -34
-1 -45 -30 -73 -40 -40 -86 -55 -215 -67 -115 -11 -160 -29 -212 -87 -51 -57
-73 -96 -133 -241 -64 -155 -125 -251 -221 -348 -103 -104 -262 -177 -344
-159 l-30 6 25 67 c21 56 26 90 31 213 l6 147 48 5 c63 8 121 39 172 92 49 51
64 80 192 355 67 144 120 241 180 330 97 143 119 168 236 266 116 98 139 108
139 64z m-1319 -204 c44 -48 89 -120 124 -200 l26 -58 -33 6 c-18 3 -69 10
-113 16 -135 16 -265 43 -265 54 1 28 70 187 103 239 l38 59 42 -38 c23 -21
58 -55 78 -78z m-2041 34 c36 -6 89 -15 118 -21 l53 -11 -6 -46 c-10 -73 -51
-222 -84 -309 -32 -80 -102 -207 -143 -255 l-23 -28 -95 11 c-52 6 -119 9
-147 6 -53 -6 -53 -5 -53 22 0 44 44 207 81 300 49 125 191 341 223 341 6 0
40 -5 76 -10z m794 -135 c49 -8 93 -18 97 -22 4 -5 24 -46 44 -93 20 -46 40
-89 45 -95 5 -6 32 -62 59 -124 l50 -112 -80 7 c-60 5 -83 3 -95 -7 -9 -7 -29
-12 -45 -11 -38 4 -142 -51 -172 -92 -44 -58 -60 -108 -65 -193 -4 -81 -5 -81
-28 -71 -17 8 -36 7 -75 -6 l-52 -17 -39 39 -40 39 55 109 c85 170 157 379
202 587 19 88 9 83 139 62z m281 -49 c17 -3 60 -8 96 -11 l66 -6 -52 -129
c-29 -71 -56 -140 -59 -152 l-7 -23 -12 25 c-43 94 -81 172 -106 218 -16 29
-31 62 -34 73 -5 20 -3 21 36 15 23 -3 56 -8 72 -10z m790 -116 c39 -7 87 -15
108 -20 21 -4 50 -5 65 -1 15 4 42 4 60 -1 18 -5 53 -8 78 -6 l46 3 30 -75
c30 -74 79 -253 93 -340 l7 -45 -23 21 c-13 11 -46 33 -74 49 -27 15 -69 43
-93 61 -24 19 -70 50 -104 69 -33 20 -67 42 -75 50 -8 9 -29 23 -45 31 -17 9
-40 26 -52 38 -17 17 -144 126 -154 132 -1 1 3 13 9 28 9 18 18 24 33 21 12
-2 53 -9 91 -15z m-85 -130 c62 -54 184 -145 225 -170 22 -13 67 -45 100 -70
58 -45 211 -142 248 -155 25 -10 21 -34 -8 -41 -16 -4 -34 0 -50 10 -13 9 -31
16 -40 16 -22 0 -3 -37 37 -71 l30 -25 -12 -72 c-11 -66 -14 -72 -33 -67 -108
25 -179 34 -263 34 -55 0 -142 1 -196 1 -81 1 -103 -2 -140 -21 -78 -39 -117
-98 -118 -175 0 -45 36 -156 61 -188 12 -15 20 -29 18 -30 -2 -2 -28 -6 -57
-7 l-54 -4 -21 50 c-12 28 -29 61 -37 75 -33 56 -38 105 -18 167 10 32 35 114
57 183 24 81 43 125 52 126 34 1 86 18 111 35 14 11 32 19 39 19 19 0 79 49
79 66 0 8 -11 20 -25 26 -28 13 -57 2 -108 -39 -16 -13 -35 -23 -44 -23 -18 0
-14 23 21 115 13 33 41 106 62 162 21 57 41 103 44 103 3 0 21 -14 40 -30z
m-703 -234 c7 -6 -35 -159 -97 -359 -30 -96 -31 -97 -58 -91 -66 15 -126 60
-164 123 -31 49 -36 66 -28 81 5 10 10 36 10 56 0 45 36 124 56 124 8 0 14 4
14 9 0 14 80 53 125 62 45 8 132 5 142 -5z m-1272 -55 l40 -7 -42 -22 c-46
-24 -143 -52 -180 -52 -21 0 -23 5 -23 45 l0 45 83 -1 c45 0 100 -4 122 -8z
m584 -243 c12 -15 11 -18 -3 -18 -10 0 -16 8 -16 22 0 12 1 19 3 17 1 -2 9
-12 16 -21z m285 -107 c54 -85 101 -116 204 -137 8 -1 15 -4 17 -6 1 -2 -22
-78 -51 -169 l-54 -166 -172 -7 c-95 -3 -184 -9 -198 -13 -25 -7 -25 -6 -7 18
54 76 114 234 120 319 2 25 1 73 -3 108 -5 56 -4 65 13 74 11 5 35 8 53 6 19
-2 34 0 34 4 0 20 22 5 44 -31z m-195 -41 c7 -32 7 -66 1 -97 -12 -66 -57
-201 -80 -243 -10 -19 -29 -56 -42 -82 -15 -32 -29 -48 -42 -48 -16 0 -17 5
-12 45 4 25 9 83 11 129 4 68 40 316 48 322 4 3 82 22 94 23 6 1 16 -21 22
-49z m-184 1 c-3 -16 -8 -46 -10 -68 -3 -21 -9 -72 -14 -113 -5 -41 -15 -121
-22 -177 -7 -57 -15 -103 -18 -103 -3 1 -33 16 -66 35 -33 19 -103 57 -155 84
-136 72 -131 65 -67 96 77 36 164 103 235 181 33 35 64 64 70 64 5 0 12 7 16
15 3 8 13 15 21 15 13 0 15 -6 10 -29z m1879 1 c55 -12 102 -24 104 -27 2 -2
-11 -55 -29 -117 l-34 -113 -50 -12 c-51 -13 -125 -23 -323 -44 -128 -13 -142
-10 -180 45 -12 18 -31 58 -42 90 -20 56 -20 57 -1 94 48 93 99 111 306 108
111 -2 176 -8 249 -24z m-696 -367 c-2 -1 -29 -5 -60 -8 -39 -4 -58 -2 -58 6
0 6 10 46 21 90 l22 79 38 -83 c22 -45 38 -83 37 -84z m-1568 31 c149 -76 174
-90 207 -112 l32 -21 -112 -7 c-62 -4 -139 -9 -173 -12 l-61 -6 -43 68 c-24
38 -49 73 -56 77 -8 4 -14 19 -14 32 0 24 2 25 68 25 59 0 77 -5 152 -44z
m2274 -8 c-11 -38 -74 -158 -82 -158 -44 2 -144 36 -217 72 -100 51 -101 49
35 64 36 4 72 8 80 10 8 1 43 5 78 9 34 5 65 12 68 16 3 5 14 9 25 9 16 0 19
-4 13 -22z m-474 -56 c0 -23 222 -119 297 -128 26 -3 53 -8 60 -12 30 -17
-126 -197 -247 -286 -34 -25 -66 -46 -70 -46 -4 0 -10 14 -14 31 -3 17 -25 72
-47 123 -23 50 -49 114 -59 141 -10 28 -30 74 -44 104 -15 29 -25 55 -22 58 4
5 68 15 134 22 6 0 12 -3 12 -7z m-93 -297 c23 -49 52 -116 66 -147 l26 -56
-22 -15 c-13 -8 -74 -41 -137 -72 l-114 -57 -51 17 c-84 30 -205 87 -205 98 0
5 18 58 40 117 44 115 110 324 110 346 0 13 9 15 120 32 l55 8 36 -91 c20 -49
54 -130 76 -180z m-857 188 c0 -5 -14 -50 -31 -100 -30 -91 -31 -93 -57 -86
-33 8 -103 44 -136 71 -14 10 -59 34 -101 53 -41 19 -73 39 -72 44 2 6 19 13
38 16 52 9 359 10 359 2z m-534 -35 c-3 -13 -6 -29 -6 -36 0 -7 -40 -54 -89
-104 -86 -88 -91 -91 -114 -79 -39 21 -185 206 -173 218 4 4 79 8 169 10 89 3
167 6 172 8 6 2 18 4 29 4 14 1 17 -4 12 -21z m160 -58 c32 -16 65 -30 72 -30
8 0 26 -8 40 -18 15 -10 62 -36 105 -57 42 -22 77 -43 77 -48 0 -21 -97 -232
-117 -253 -31 -33 -72 -31 -168 11 -44 19 -81 31 -83 25 -2 -5 -26 5 -53 23
-38 25 -48 37 -44 52 2 11 14 74 26 140 17 94 27 126 48 152 14 18 29 33 32
33 3 0 33 -13 65 -30z m-190 -127 c-2 -10 -10 -51 -16 -90 -13 -80 -13 -80
-74 -29 l-29 24 59 56 c32 30 60 55 62 56 2 0 1 -8 -2 -17z m1039 -293 c64
-29 80 -35 110 -40 16 -3 -43 -19 -149 -40 -54 -11 -100 -20 -101 -20 -2 0 11
31 28 70 17 38 33 68 36 66 3 -2 38 -18 76 -36z"/>
</g>
</svg>
